<?xml version="1.0" encoding="UTF-8"?>
<svg id="Capa_1" data-name="Capa 1" xmlns="http://www.w3.org/2000/svg" viewBox="0 0 36.85 36.85">
  <defs>
    <style>
      .cls-1 {
        fill: #fff;
      }

      .cls-2 {
        fill: #b2b0d8;
      }
    </style>
  </defs>
  <circle class="cls-2" cx="18.54" cy="18.42" r="17.71"/>
  <g>
    <path class="cls-1" d="M9.97,13.17c-2.52,4.14-1.74,9.43,1.78,12.66s8.86,3.54,12.73.69,5.19-7.94,3.17-12.31-6.71-6.66-11.39-5.57c-.62.14-1.21-.19-1.37-.8s.25-1.21.84-1.35c5.71-1.34,11.49,1.54,13.91,6.75s.82,11.66-3.89,15.09-11.32,3.05-15.6-.97-5.14-10.55-1.94-15.52c.3-.46,1.08-.44,1.46-.17.47.35.64.95.31,1.49Z"/>
    <path class="cls-1" d="M19.64,22.62c0,.65-.54,1.09-1.11,1.09s-1.1-.45-1.1-1.07v-3.11s-3.17,0-3.17,0c-.59-.08-1.01-.55-1.01-1.11s.42-1.03,1.01-1.11h3.16s0-3.16,0-3.16c.09-.6.54-1.01,1.12-1.01.52,0,1.09.41,1.09,1.01l.02,3.16h3.11c.62.01,1.07.55,1.06,1.11s-.44,1.1-1.06,1.11h-3.11s0,3.09,0,3.09Z"/>
    <path class="cls-1" d="M11.62,8.43c.64-.14,1.18.28,1.31.86s-.26,1.19-.87,1.31c-.57.11-1.16-.24-1.29-.84-.12-.57.18-1.19.85-1.33Z"/>
  </g>
</svg>