<?xml version="1.0" encoding="UTF-8"?>
<svg id="Capa_1" data-name="Capa 1" xmlns="http://www.w3.org/2000/svg" viewBox="0 0 36.85 36.85">
  <defs>
    <style>
      .cls-1 {
        fill: #0b5d5e;
      }

      .cls-2 {
        fill: #fff;
      }
    </style>
  </defs>
  <circle class="cls-1" cx="18.43" cy="18.43" r="17.71"/>
  <g>
    <path class="cls-2" d="M26.04,28.95l-1.21-1.19-1.97-1.92-.97-.96c-4.24,2.66-9.79,1.56-12.74-2.48-2.42-3.31-2.46-7.84,0-11.18,1.8-2.5,4.71-3.98,7.78-3.95s5.95,1.54,7.73,4.07c2.24,3.19,2.31,7.44.14,10.7l3.84,3.81c.32.31.61.59.77,1.02.35.89-.02,1.89-.79,2.39-.82.53-1.85.39-2.57-.31ZM25.03,16.8c0-4.52-3.66-8.18-8.18-8.18s-8.18,3.66-8.18,8.18,3.66,8.18,8.18,8.18,8.18-3.66,8.18-8.18ZM25.96,26.98l1.07,1.05c.28.27.66.27.94.02.25-.23.29-.66.02-.93l-.67-.66-3.36-3.33c-.25.3-.49.52-.75.76l-.23.21,1.04,1.01,1.93,1.89Z"/>
    <path class="cls-2" d="M21.94,17.46c-.12-.96-.36-1.88-.81-2.73-.82-1.57-2.32-2.59-4.08-2.7-.22-.01-.31-.3-.28-.45.04-.23.23-.36.47-.34,2,.17,3.71,1.36,4.63,3.14.47.91.73,1.88.87,2.9.03.25-.06.46-.29.51-.22.05-.47-.06-.5-.33Z"/>
  </g>
</svg>