<?xml version="1.0" encoding="UTF-8"?>
<svg id="Capa_1" data-name="Capa 1" xmlns="http://www.w3.org/2000/svg" viewBox="0 0 36.85 36.85">
  <defs>
    <style>
      .cls-1 {
        fill: #fff;
      }

      .cls-2 {
        fill: #e95643;
      }
    </style>
  </defs>
  <path class="cls-2" d="M36.03,18.43c0,9.72-7.88,17.6-17.6,17.6S.83,28.15.83,18.43,8.7.83,18.43.83s17.6,7.88,17.6,17.6ZM13.46,22.11h11.5c.38-.04.56-.28.64-.63l1.92-8.19c.09-.39-.36-.72-.73-.69h-15.59s-.65-2.74-.65-2.74h-3.91c-.41,0-.72.28-.73.68,0,.31.25.68.63.69h2.92s3.22,13.66,3.22,13.66c.1.42.37.59.79.59h10.8c.43,0,.72-.32.7-.71-.01-.36-.29-.66-.71-.66h-10.37s-.46-2-.46-2ZM16.16,27.52c0-.81-.66-1.47-1.47-1.47s-1.47.66-1.47,1.47.66,1.47,1.47,1.47,1.47-.66,1.47-1.47ZM24.31,27.52c0-.81-.66-1.47-1.47-1.47s-1.47.66-1.47,1.47.66,1.47,1.47,1.47,1.47-.66,1.47-1.47Z"/>
  <path class="cls-1" d="M13.46,22.11l.46,2h10.37c.41,0,.69.29.71.66.01.39-.27.71-.7.71h-10.8c-.42,0-.7-.18-.79-.59l-3.22-13.65h-2.92c-.38-.01-.64-.38-.63-.7,0-.39.32-.68.73-.68h3.91s.65,2.74.65,2.74h15.59c.36-.03.82.3.73.69l-1.92,8.19c-.08.35-.26.59-.64.63h-11.5ZM14.44,16.68l-.32-2.71h-2.6s.64,2.72.64,2.72h2.28ZM18.04,16.68v-2.72s-2.69,0-2.69,0l.36,2.72h2.33ZM21.66,16.68l.36-2.71h-2.65s0,2.72,0,2.72h2.29ZM25.32,16.68l.64-2.71h-2.53s-.42,2.72-.42,2.72h2.31ZM14.91,20.73l-.32-2.72h-2.12s.64,2.73.64,2.73h1.8ZM18.02,20.74v-2.72s-2.14,0-2.14,0l.37,2.73h1.77ZM21.11,20.74l.37-2.72h-2.11s0,2.73,0,2.73h1.73ZM24.37,20.74l.64-2.72h-2.2s-.42,2.73-.42,2.73h1.98Z"/>
  <circle class="cls-1" cx="22.84" cy="27.52" r="1.47"/>
  <circle class="cls-1" cx="14.61" cy="27.52" r="1.47"/>
  <polygon class="cls-2" points="18.04 16.68 15.71 16.68 15.34 13.97 18.04 13.97 18.04 16.68"/>
  <polygon class="cls-2" points="21.66 16.68 19.37 16.69 19.37 13.97 22.02 13.97 21.66 16.68"/>
  <polygon class="cls-2" points="14.44 16.68 12.16 16.68 11.52 13.97 14.12 13.97 14.44 16.68"/>
  <polygon class="cls-2" points="25.32 16.68 23.01 16.69 23.43 13.97 25.96 13.97 25.32 16.68"/>
  <polygon class="cls-2" points="24.37 20.74 22.39 20.74 22.81 18.02 25.01 18.02 24.37 20.74"/>
  <polygon class="cls-2" points="14.91 20.73 13.12 20.75 12.47 18.02 14.59 18.01 14.91 20.73"/>
  <polygon class="cls-2" points="18.02 20.74 16.25 20.75 15.89 18.02 18.03 18.02 18.02 20.74"/>
  <polygon class="cls-2" points="21.11 20.74 19.37 20.74 19.37 18.02 21.48 18.02 21.11 20.74"/>
</svg>