<?xml version="1.0" encoding="UTF-8"?>
<svg id="Capa_1" data-name="Capa 1" xmlns="http://www.w3.org/2000/svg" viewBox="0 0 36.85 36.85">
  <defs>
    <style>
      .cls-1 {
        fill: #fff;
      }

      .cls-2 {
        fill: #e95643;
      }
    </style>
  </defs>
  <path class="cls-2" d="M36.13,18.43c0,9.78-7.93,17.71-17.71,17.71S.72,28.21.72,18.43,8.64.72,18.43.72s17.71,7.93,17.71,17.71ZM19.81,19.88h4.14s.2-4.01.2-4.01l-4.34-.02.02-3.32c0-.49.41-1.25.97-1.25l3.22-.03.14-3.78c-1.51-.08-3.01-.23-4.46.04-2.24.41-3.86,2.07-4.08,4.36l-.07,4.02-2.87.02v3.97s2.92,0,2.92,0v11.06s4.21,0,4.21,0v-11.06Z"/>
  <path class="cls-1" d="M19.81,19.88v11.06s-4.21,0-4.21,0v-11.06s-2.91,0-2.91,0v-3.97s2.86-.02,2.86-.02l.07-4.02c.22-2.28,1.84-3.95,4.08-4.36,1.45-.27,2.95-.12,4.46-.04l-.14,3.78-3.22.03c-.56,0-.97.77-.97,1.25l-.02,3.32,4.34.02-.2,3.99h-4.14Z"/>
</svg>