<?xml version="1.0" encoding="UTF-8"?>
<svg id="Capa_1" data-name="Capa 1" xmlns="http://www.w3.org/2000/svg" viewBox="0 0 36.85 36.85">
  <defs>
    <style>
      .cls-1 {
        fill: #0b5d5e;
      }

      .cls-2 {
        fill: #fff;
      }
    </style>
  </defs>
  <circle class="cls-2" cx="23.93" cy="12.77" r="1.25"/>
  <path class="cls-1" d="M36.14,18.43c0,9.78-7.93,17.71-17.71,17.71S.72,28.21.72,18.43,8.64.72,18.43.72s17.71,7.93,17.71,17.71ZM28.76,22.77l-.02-8.96c0-3.12-2.57-5.76-5.71-5.77h-9.13c-3.12-.02-5.83,2.49-5.83,5.64v9.41c0,2.9,2.47,5.57,5.39,5.57h9.85c3.09,0,5.45-2.83,5.45-5.89Z"/>
  <path class="cls-2" d="M28.76,22.77c0,3.07-2.35,5.9-5.45,5.9h-9.85c-2.93,0-5.39-2.68-5.39-5.57v-9.41c0-3.15,2.71-5.66,5.83-5.65h9.13c3.14.02,5.71,2.66,5.71,5.78l.02,8.96ZM23.09,26.96c2.29,0,3.93-2.01,3.92-4.16v-8.99c-.01-2.08-1.59-3.73-3.59-4.03h-10.05c-2.18.32-3.61,2.14-3.61,4.31l.03,8.85c0,2.24,1.89,4.05,4.1,4.04l9.19-.03Z"/>
  <path class="cls-1" d="M23.09,26.96l-9.19.03c-2.22,0-4.1-1.8-4.1-4.04l-.03-8.85c0-2.17,1.43-3.99,3.61-4.31h10.05c2,.3,3.58,1.95,3.58,4.03v8.99c.01,2.15-1.63,4.15-3.91,4.16ZM25.18,12.77c0-.69-.56-1.25-1.25-1.25s-1.25.56-1.25,1.25.56,1.25,1.25,1.25,1.25-.56,1.25-1.25ZM23.68,18.38c0-2.92-2.37-5.29-5.29-5.29s-5.29,2.37-5.29,5.29,2.37,5.29,5.29,5.29,5.29-2.37,5.29-5.29Z"/>
  <path class="cls-2" d="M23.68,18.38c0,2.92-2.37,5.29-5.29,5.29s-5.29-2.37-5.29-5.29,2.37-5.29,5.29-5.29,5.29,2.37,5.29,5.29ZM21.95,18.38c0-1.96-1.59-3.56-3.56-3.56s-3.56,1.59-3.56,3.56,1.59,3.56,3.56,3.56,3.56-1.59,3.56-3.56Z"/>
  <circle class="cls-1" cx="18.4" cy="18.38" r="3.56"/>
</svg>