<?xml version="1.0" encoding="UTF-8"?>
<svg id="Capa_1" data-name="Capa 1" xmlns="http://www.w3.org/2000/svg" viewBox="0 0 36.85 36.85">
  <defs>
    <style>
      .cls-1 {
        fill: #fff;
      }

      .cls-2 {
        fill: #e95643;
      }
    </style>
  </defs>
  <circle class="cls-2" cx="18.43" cy="18.43" r="17.71"/>
  <g>
    <path class="cls-1" d="M16.66,25.86h0c-.12,0-.14-.17-.03-.21,2.34-.83,5.09-2.59,5.71-5.17.04-.15.03-.3-.03-.44-.12-.31-.18-.65-.18-1.02,0-.21.02-.42.06-.61.05-.23.01-.46-.09-.67-.62-1.21-1.94-1.82-3.42-1.82-.88,0-1.76.24-2.43.73h0c-.71.53-1.19,1.33-1.19,2.44,0,.05,0,.1,0,.15h0c.03.84.29,1.81,1.28,1.81.52,0,1.07-.36,1.07-1.02,0-.58-.25-1.09-.25-1.68,0-1.33.76-1.95,1.52-1.95,1.11,0,1.53,1.12,1.53,2.11,0,3.44-2.48,5.45-5.07,7.13-.11.07-.18.19-.18.33v1.02c0,.22.17.39.38.39h6.71c.2,0,.37-.16.38-.37l.02-.58c0-.09-.03-.18-.08-.26-.21-.26-.35-.54-.45-.84-.07-.23-.33-.33-.54-.22-.96.53-2.59.75-4.71.75Z"/>
    <path class="cls-1" d="M28.46,21.51c-.15-.11-.15-.33,0-.44.84-.62,1.29-1.52,1.29-2.4,0-1.91-1.78-2.84-3.42-2.84-1.53,0-3.24.73-3.72,2.25,0,0,0,0,0,0-.09.27-.13.57-.13.89,0,.45.09.85.26,1.2,0,0,0,0,0,0,.24.53.64.97,1.11,1.35.11.09.1.28-.03.35-1.09.6-1.66,1.63-1.66,2.65,0,.08,0,.15.01.22.05.53.25,1.04.64,1.47.6.68,1.63,1.15,3.14,1.15,2.05,0,4.17-1.07,4.17-3.14,0-1.22-.73-2.04-1.65-2.72ZM26.1,26.9c-1.42,0-2.04-1.18-2.04-2.43,0,0,0-.02,0-.03,0-1.2,1.33-1.92,2.32-1.27.84.55,1.48,1.13,1.48,1.94,0,1.17-.86,1.78-1.76,1.78ZM27.84,19.61c-.17.65-.91.94-1.46.58-.92-.59-1.65-1.21-1.65-2.11s.52-1.79,1.51-1.79c1.23,0,1.73,1.36,1.73,2.42,0,.3-.04.61-.12.9Z"/>
    <path class="cls-1" d="M12.24,27.32c-.68.03-1.25-.42-1.29-1.12-.03-.53.31-.93.85-.96,1.28-.06,2.12-.67,2.06-2.02-.05-.91-.69-1.56-1.62-1.51-2.61.13-1.91,5.5-5.03,5.66-2.14.11-2.71-1.93-2.8-3.68-.05-.99.15-2.39,1.02-3.02.24-.17.53-.32.83-.33.53-.03.87.38.9.88.09,1.75-2.54.71-2.44,2.83.04.87.6,1.48,1.51,1.44,2.67-.13,1.52-5.58,5.09-5.76,2.13-.11,2.77,1.85,2.86,3.61.07,1.32-.18,3.9-1.93,3.99Z"/>
    <path class="cls-1" d="M19.76,5.47l.57,2.02c.03.09.12.14.21.12l.68-.19c.09-.03.18.03.21.12h0c.03.09-.03.18-.12.21l-.68.19c-.09.03-.14.12-.12.21l1.09,3.91c.08.29.32.65.67.55.17-.05.3-.2.37-.36.02-.05.07-.07.12-.06h0s.08.06.08.11c-.06.84-.63,1.38-1.43,1.61-.69.2-1.34,0-1.56-.75l-1.26-4.46c-.03-.09-.12-.14-.21-.12l-.42.12c-.09.03-.18-.03-.21-.12v-.04c-.03-.07,0-.15.06-.19.79-.52,1.66-1.8,1.5-2.76-.01-.08.04-.16.12-.18l.1-.03c.09-.03.18.03.21.12Z"/>
    <path class="cls-1" d="M21.4,15c-.12-.79-2.86-1.18-5.2-.62-1.21.29-1.42-.69-1.86-1.66-.04-.09,0-.19.09-.23.65-.24,2.97-1.11,3.58-1.34.08-.03.13-.12.1-.21-.25-.75-.7-1.29-1.28-1.62-.21-.12-.59-.27-.91-.28-.37-.01-.77,0-1.19.12-2.15.61-3.15,2.53-2.02,4.84.65,1.33,2.2,1.94,3.59,1.43,1.7-.62,3-.57,4.72-.04,0,0,.45.12.37-.38ZM14.12,12.04c-.21-.86-.35-2.29.67-2.58.73-.21,1.2.81,1.36,1.36.04.13.07.27.09.41.01.07-.03.15-.1.18-.35.15-1.38.57-1.79.75-.09.04-.2-.01-.23-.11Z"/>
    <path class="cls-1" d="M28.16,8.78c1.6.85,1.85,2.36,1.18,3.7-.02.04-.07.06-.11.04l-3.66-1.57s-.09,0-.11.05c-.42,1.09-.29,2.16.8,2.73.9.48,1.87.43,2.76-.03.04-.02.08,0,.1.02h0s.02.09-.01.11c-1.23,1.02-2.68,1.32-4.06.59-1.79-.95-2.29-2.58-1.34-4.37.93-1.75,2.7-2.2,4.45-1.28ZM25.72,10.64l1.96.75s.08,0,.1-.03c.61-.86.86-1.99.21-2.33-.9-.48-1.83.58-2.31,1.49-.02.04,0,.1.04.12Z"/>
    <path class="cls-1" d="M15.13,16.18s-.06,0-.08.01c-.32.28-.69.41-1.23.16l-2.96-1.38c-.07-.03-.13.06-.08.11.4.43.75.73.58,1.23-.08.24-.41.38-.73.36-.19-.01-.34.04-.44.11-.03.02-.02.08,0,.09.54.23,2.79,1.27,2.79,1.27.54.25.68.62.67,1.04,0,.03.02.06.04.07h0s.08,0,.1-.04c0,0,.12-1.18.33-1.6.5-1,1.04-1.34,1.04-1.34.02-.04,0-.08-.04-.1Z"/>
    <path class="cls-1" d="M11.11,15.98c.02-.14-.79-.84-.97-1.37-.2-.6-.68-1.01-1.33-.76-.44.17-.52.84-.3,1.17.16.23.64.44.55.43-.97-.12-1.22.8-1,1.24.32.62,1.03.51,1.51.12.42-.34.84-.43,1.2-.39.25.03.4-.23.34-.44Z"/>
  </g>
</svg>