<?xml version="1.0" encoding="UTF-8"?>
<svg id="Capa_1" data-name="Capa 1" xmlns="http://www.w3.org/2000/svg" viewBox="0 0 36.85 36.85">
  <defs>
    <style>
      .cls-1 {
        fill: #fff;
      }

      .cls-2 {
        fill: #e95643;
      }
    </style>
  </defs>
  <polygon class="cls-1" points="28.79 24.85 22.56 18.42 28.8 12.67 28.79 24.85"/>
  <g>
    <path class="cls-2" d="M36.14,18.43c0,9.78-7.93,17.71-17.71,17.71S.71,28.21.71,18.43,8.64.71,18.43.71s17.71,7.93,17.71,17.71ZM18.56,20.59l9.4-8.69H8.85s8.82,8.79,8.82,8.79c.26.25.62.23.9-.1ZM13.94,18.53l-5.89-5.85v12.19s5.89-6.34,5.89-6.34ZM28.79,24.85v-12.19s-6.23,5.75-6.23,5.75l6.23,6.43ZM14.72,19.31l-5.89,6.38h19.16s-6.24-6.53-6.24-6.53l-2.61,2.39c-.6.57-1.47.57-2.11.06l-2.32-2.3Z"/>
    <path class="cls-1" d="M18.56,20.59c-.28.33-.64.35-.9.1l-8.82-8.79h19.12s-9.4,8.69-9.4,8.69Z"/>
    <path class="cls-1" d="M14.72,19.31l2.32,2.3c.64.51,1.51.51,2.11-.06l2.61-2.39,6.24,6.53H8.84s5.89-6.38,5.89-6.38Z"/>
    <polygon class="cls-1" points="13.94 18.53 8.06 24.87 8.05 12.68 13.94 18.53"/>
  </g>
</svg>