<?xml version="1.0" encoding="UTF-8"?>
<svg id="Capa_1" data-name="Capa 1" xmlns="http://www.w3.org/2000/svg" viewBox="0 0 36.85 36.85">
  <defs>
    <style>
      .cls-1 {
        fill: #fff;
      }

      .cls-2 {
        fill: #b2b0d8;
      }
    </style>
  </defs>
  <circle class="cls-2" cx="18.43" cy="18.43" r="17.71"/>
  <path class="cls-1" d="M26.95,28.39l-3.51-3.51c-6.94,2.38-13.8-.63-19.13-5.36,2.09-2.62,4.52-4.75,7.32-6.45l-3.17-3.18,1.43-1.45,3.7,3.72c7.3-3.23,14.2,1.6,18.95,7.35-2.16,1.92-4.42,3.43-7,4.58l2.85,2.84-1.44,1.44ZM22.28,17.31c.43,1.24.11,2.2-.35,3.19l1.42,1.44c1.72-2.4,1.43-5.68-.59-7.73s-5.34-2.47-7.84-.71l1.44,1.44c1.02-.51,2.02-.79,3.19-.34-.69.58-1.01,1.28-.84,2.08.15.72.78,1.32,1.45,1.46.87.19,1.52-.22,2.11-.82ZM20.43,21.91c-1.83,1.07-3.75.57-4.97-.72s-1.46-3.22-.53-4.81l-1.46-1.44c-1.76,2.52-1.37,5.78.73,7.83s5.22,2.35,7.7.6l-1.48-1.45Z"/>
</svg>