<?xml version="1.0" encoding="UTF-8"?>
<svg id="Capa_1" data-name="Capa 1" xmlns="http://www.w3.org/2000/svg" viewBox="0 0 36.85 36.85">
  <defs>
    <style>
      .cls-1 {
        fill: #fff;
      }

      .cls-2 {
        fill: #b2b0d8;
      }
    </style>
  </defs>
  <circle class="cls-2" cx="18.43" cy="18.43" r="17.71"/>
  <g>
    <path class="cls-1" d="M32.54,19.53c-5.69,5.03-12.56,7.85-19.91,5.13-3.09-1.14-5.81-2.86-8.33-5.12,3.46-4.22,8.35-8.19,13.91-8.41,5.72-.01,10.78,4.1,14.33,8.4ZM24.48,18.44c0-3.35-2.71-6.06-6.06-6.06s-6.06,2.71-6.06,6.06,2.71,6.06,6.06,6.06,6.06-2.71,6.06-6.06Z"/>
    <path class="cls-1" d="M19.57,14.56c-1.01.87-1.2,2.13-.39,3s2.24.83,3.11-.31c.77,2.46-.92,4.89-3.36,5.21s-4.7-1.72-4.56-4.25,2.52-4.44,5.19-3.65Z"/>
  </g>
</svg>