<?xml version="1.0" encoding="UTF-8"?>
<svg id="Capa_1" data-name="Capa 1" xmlns="http://www.w3.org/2000/svg" viewBox="0 0 36.85 36.85">
  <defs>
    <style>
      .cls-1 {
        fill: #d7db81;
      }

      .cls-2 {
        fill: #fff;
      }
    </style>
  </defs>
  <circle class="cls-1" cx="18.43" cy="18.43" r="17.71"/>
  <path class="cls-1" d="M22.64,22.28l.04-7.06c1.57,1.03,3.17,1.57,5.1,1.59v-3.6c-2.97-.1-5.14-2.38-5.16-5.2l-3.61-.04-.11,15.33c-.01,1.87-2.23,2.92-3.72,2.57-1.84-.43-2.87-2.17-2.39-3.95.45-1.69,2.2-2.69,4-2.21v-3.71c-2.82-.37-5.46,1.03-6.78,3.33-1.42,2.48-1.2,5.43.56,7.68,1.85,2.36,5.05,3.17,7.8,2.06s4.27-3.72,4.28-6.81Z"/>
  <path class="cls-2" d="M22.64,22.28c-.02,3.08-1.57,5.71-4.28,6.81s-5.94.3-7.8-2.06-1.99-5.21-.56-7.68c1.32-2.3,3.96-3.7,6.78-3.33v3.71c-1.81-.48-3.55.53-4,2.21-.47,1.78.55,3.52,2.39,3.95,1.49.35,3.7-.7,3.72-2.57l.11-15.33,3.61.04c.03,2.81,2.2,5.09,5.16,5.2v3.6c-1.92-.01-3.52-.55-5.09-1.59l-.04,7.06Z"/>
</svg>