<?xml version="1.0" encoding="UTF-8"?>
<svg id="Capa_1" data-name="Capa 1" xmlns="http://www.w3.org/2000/svg" viewBox="0 0 36.85 36.85">
  <defs>
    <style>
      .cls-1 {
        fill: #fff;
      }

      .cls-2 {
        fill: #b2b0d8;
      }
    </style>
  </defs>
  <path class="cls-2" d="M36.14,18.43c0,9.78-7.93,17.71-17.71,17.71S.71,28.21.71,18.43,8.64.71,18.43.71s17.71,7.93,17.71,17.71ZM7.71,28.87l5.63-1.46c4.8,2.59,10.63,1.2,13.79-3.13s2.6-10.22-1.16-13.91c-3.83-3.77-9.87-4.1-14.1-.79s-5.36,9.11-2.68,13.77l-1.48,5.51Z"/>
  <path class="cls-1" d="M7.71,28.87l1.48-5.51c-2.68-4.67-1.47-10.52,2.68-13.77s10.27-2.98,14.1.79c3.75,3.69,4.26,9.65,1.16,13.91s-8.98,5.72-13.79,3.13l-5.63,1.46ZM10.24,26.36l3.38-.83c3.99,2.5,9.13,1.57,11.94-2.09s2.38-8.78-.96-11.94-8.49-3.23-11.94-.28-4.15,8.06-1.55,11.86l-.87,3.28Z"/>
  <path class="cls-2" d="M10.24,26.36l.87-3.28c-2.6-3.8-1.89-8.91,1.55-11.86s8.66-2.83,11.94.28,3.72,8.34.96,11.94-7.95,4.59-11.94,2.09l-3.38.83ZM21.17,19.26l-1.3,1.54c-1.91-.69-3.27-1.89-4.16-3.59l1.01-1.36-1.11-2.52c-.28-.65-1.5-.19-1.87.28-.86,1.11-.92,2.48-.24,3.72,1.54,2.83,4.27,5.31,7.52,5.79.91.13,1.9-.29,2.47-1,.36-.44.43-1.1.35-1.63l-2.67-1.24Z"/>
  <path class="cls-1" d="M21.17,19.26l2.67,1.24c.08.53,0,1.18-.35,1.63-.57.71-1.55,1.14-2.47,1-3.26-.47-5.98-2.96-7.52-5.79-.68-1.24-.62-2.62.24-3.72.37-.47,1.58-.93,1.87-.28l1.11,2.52-1.01,1.36c.89,1.7,2.25,2.9,4.16,3.59l1.3-1.54Z"/>
</svg>