<?xml version="1.0" encoding="UTF-8"?>
<svg id="Capa_1" data-name="Capa 1" xmlns="http://www.w3.org/2000/svg" viewBox="0 0 36.85 36.85">
  <defs>
    <style>
      .cls-1 {
        fill: #d7db81;
      }

      .cls-2 {
        fill: #fff;
      }
    </style>
  </defs>
  <circle class="cls-1" cx="18.43" cy="18.43" r="17.71"/>
  <g>
    <path class="cls-2" d="M26.03,11.8l-15.08.02c-.96,0-1.28-.96-1.27-1.75s.21-1.73,1.14-1.79c1.23-.09,2.5-.03,3.8-.04-.04-.97.57-1.62,1.47-1.62h4.79c.88,0,1.53.65,1.45,1.61l3.65.03c.91,0,1.22.92,1.22,1.73,0,.66-.19,1.81-1.16,1.81ZM26.03,10.82c.2-.58.18-1.08-.01-1.59h-3.94c-.19,0-.49-.1-.58-.22-.34-.41.02-1.03-.36-1.38h-5.24c-.46,0-.05,1.56-.77,1.57l-4.31.05c-.18.55-.18.99,0,1.57h15.22Z"/>
    <path class="cls-2" d="M23.54,30.24h-10.14c-.7,0-1.3-.6-1.37-1.3l-1.58-14.92c-.09-.85.41-1.62,1.33-1.61h13.6c.86,0,1.32.84,1.23,1.61l-1.6,15.01c-.08.72-.77,1.21-1.47,1.21ZM23.62,29.24c.21-.07.39-.23.41-.42l1.59-14.98c.02-.21-.15-.39-.34-.43h-13.52c-.24,0-.36.27-.33.47l1.59,14.94c.03.27.28.42.53.42h10.08Z"/>
    <path class="cls-2" d="M19.14,26.99c0,.43-.35.62-.66.61s-.61-.27-.61-.63v-11.16c0-.35.26-.58.55-.63.24-.04.71.12.71.49v11.32Z"/>
    <path class="cls-2" d="M16.16,26.73c.05.5-.11.8-.55.86-.32.05-.66-.2-.7-.61l-1.08-11.17c-.04-.37.32-.63.58-.63.41-.01.64.22.68.65l1.05,10.91Z"/>
    <path class="cls-2" d="M22.15,26.97c-.04.44-.33.64-.66.63-.36-.01-.64-.3-.6-.72l1.07-11.07c.04-.39.29-.64.64-.63s.66.3.62.73l-1.07,11.07Z"/>
  </g>
</svg>
