<?xml version="1.0" encoding="UTF-8"?>
<svg id="Capa_1" data-name="Capa 1" xmlns="http://www.w3.org/2000/svg" viewBox="0 0 61.94 56.03">
  <defs>
    <style>
      .cls-1 {
        fill: #fff;
      }

      .cls-2 {
        fill: #e95643;
      }
    </style>
  </defs>
  <path class="cls-2" d="M50.21,30.25c0,9.72-7.88,17.6-17.6,17.6s-17.6-7.88-17.6-17.6,7.88-17.6,17.6-17.6,17.6,7.88,17.6,17.6ZM27.64,33.93h11.5c.38-.04.56-.28.64-.63l1.92-8.19c.09-.39-.36-.72-.73-.69h-15.59s-.65-2.74-.65-2.74h-3.91c-.41,0-.72.28-.73.68,0,.31.25.68.63.69h2.92s3.22,13.66,3.22,13.66c.1.42.37.59.79.59h10.8c.43,0,.72-.32.7-.71-.01-.36-.29-.66-.71-.66h-10.37s-.46-2-.46-2ZM30.35,39.34c0-.81-.66-1.47-1.47-1.47s-1.47.66-1.47,1.47.66,1.47,1.47,1.47,1.47-.66,1.47-1.47ZM38.5,39.34c0-.81-.66-1.47-1.47-1.47s-1.47.66-1.47,1.47.66,1.47,1.47,1.47,1.47-.66,1.47-1.47Z"/>
  <path class="cls-1" d="M27.64,33.93l.46,2h10.37c.41,0,.69.29.71.66.01.39-.27.71-.7.71h-10.8c-.42,0-.7-.18-.79-.59l-3.22-13.65h-2.92c-.38-.01-.64-.38-.63-.7,0-.39.32-.68.73-.68h3.91s.65,2.74.65,2.74h15.59c.36-.03.82.3.73.69l-1.92,8.19c-.08.35-.26.59-.64.63h-11.5ZM28.62,28.5l-.32-2.71h-2.6s.64,2.72.64,2.72h2.28ZM32.22,28.5v-2.72s-2.69,0-2.69,0l.36,2.72h2.33ZM35.84,28.5l.36-2.71h-2.65s0,2.72,0,2.72h2.29ZM39.51,28.5l.64-2.71h-2.53s-.42,2.72-.42,2.72h2.31ZM29.1,32.55l-.32-2.72h-2.12s.64,2.73.64,2.73h1.8ZM32.21,32.56v-2.72s-2.14,0-2.14,0l.37,2.73h1.77ZM35.29,32.56l.37-2.72h-2.11s0,2.73,0,2.73h1.73ZM38.55,32.56l.64-2.72h-2.2s-.42,2.73-.42,2.73h1.98Z"/>
  <circle class="cls-1" cx="37.02" cy="39.34" r="1.47"/>
  <polygon class="cls-2" points="32.22 28.5 29.89 28.5 29.53 25.79 32.23 25.79 32.22 28.5"/>
  <polygon class="cls-2" points="35.84 28.5 33.56 28.51 33.55 25.79 36.21 25.79 35.84 28.5"/>
  <polygon class="cls-2" points="28.62 28.5 26.34 28.5 25.71 25.79 28.3 25.79 28.62 28.5"/>
  <polygon class="cls-2" points="39.51 28.5 37.2 28.51 37.61 25.79 40.14 25.79 39.51 28.5"/>
  <polygon class="cls-2" points="38.55 32.56 36.57 32.56 36.99 29.84 39.19 29.84 38.55 32.56"/>
  <polygon class="cls-2" points="29.1 32.55 27.3 32.57 26.66 29.84 28.78 29.83 29.1 32.55"/>
  <polygon class="cls-2" points="32.21 32.56 30.44 32.57 30.07 29.84 32.21 29.84 32.21 32.56"/>
  <polygon class="cls-2" points="35.29 32.56 33.56 32.56 33.55 29.84 35.66 29.84 35.29 32.56"/>
</svg>