<?xml version="1.0" encoding="UTF-8"?>
<svg id="Capa_1" data-name="Capa 1" xmlns="http://www.w3.org/2000/svg" viewBox="0 0 61.94 56.03">
  <defs>
    <style>
      .cls-1 {
        fill: #fff;
      }

      .cls-2 {
        fill: #e95643;
      }
    </style>
  </defs>
  <polygon class="cls-1" points="42.2 37.63 35.97 31.2 42.21 25.44 42.2 37.63"/>
  <g>
    <path class="cls-2" d="M49.55,31.2c0,9.78-7.93,17.71-17.71,17.71s-17.71-7.93-17.71-17.71,7.93-17.71,17.71-17.71,17.71,7.93,17.71,17.71ZM31.98,33.37l9.4-8.69h-19.12s8.82,8.79,8.82,8.79c.26.25.62.23.9-.1ZM27.35,31.31l-5.89-5.85v12.19s5.89-6.34,5.89-6.34ZM42.2,37.63v-12.19s-6.23,5.75-6.23,5.75l6.23,6.43ZM28.13,32.09l-5.89,6.38h19.16s-6.24-6.53-6.24-6.53l-2.61,2.39c-.6.57-1.47.57-2.11.06l-2.32-2.3Z"/>
    <path class="cls-1" d="M31.98,33.37c-.28.33-.64.35-.9.1l-8.82-8.79h19.12s-9.4,8.69-9.4,8.69Z"/>
    <path class="cls-1" d="M28.13,32.09l2.32,2.3c.64.51,1.51.51,2.11-.06l2.61-2.39,6.24,6.53h-19.16s5.89-6.38,5.89-6.38Z"/>
    <polygon class="cls-1" points="27.35 31.31 21.47 37.64 21.46 25.46 27.35 31.31"/>
  </g>
</svg>