<?xml version="1.0" encoding="UTF-8"?>
<svg id="Capa_1" data-name="Capa 1" xmlns="http://www.w3.org/2000/svg" viewBox="0 0 61.94 56.03">
  <defs>
    <style>
      .cls-1 {
        fill: #0b5d5e;
      }
    </style>
  </defs>
  <path class="cls-1" d="M51.64,27.59l-.04-.67c-.06-1.07-.28-2.09-.56-3.11-1.64-5.95-6.32-10.65-12.27-12.29-1.08-.3-2.18-.53-3.31-.58l-.54-.02s-.11-.01-.11-.03h-1.48s-.62.06-.62.06c-1.64.13-3.25.48-4.79,1.05-5.27,1.97-9.3,6.36-10.81,11.78-.3,1.09-.49,2.19-.58,3.32l-.05.65v1.48s.02.15.02.15l.04.67c.72,8.43,7.49,15.21,15.92,15.96l.79.04s.12.01.12.03h1.45s.06-.03.08-.03l.54-.02c6.81-.51,12.73-4.98,15.13-11.39.58-1.54.93-3.15,1.06-4.8l.02-.62.04-.04v-1.45l-.03-.15ZM42.26,37.7c-.51,0-.89-.39-.89-.92,0-2.53-1.38-4.86-3.61-6.1-2.33-1.29-5.22-1.26-7.5.06-2.16,1.25-3.5,3.54-3.5,6.04,0,.52-.36.91-.86.92-.5.01-.91-.39-.89-.93.03-3.64,2.18-6.74,5.57-8.13-2.71-1.78-3.63-5.27-2.22-8.14,1.41-2.86,4.72-4.24,7.77-3.2,2.25.76,3.87,2.76,4.21,5.06.37,2.48-.71,4.89-2.8,6.28,3.35,1.37,5.52,4.48,5.56,8.1,0,.53-.33.95-.86.96Z"/>
  <circle class="cls-1" cx="34.07" cy="23.32" r="4.62"/>
</svg>