<svg xmlns="http://www.w3.org/2000/svg" style="display: none;">
  <symbol id="icon-facebook" viewBox="0 0 36.85 36.85">
    <path fill="#e95643" d="M36.13 18.43c0 9.78-7.93 17.71-17.71 17.71S.72 28.21.72 18.43 8.64.72 18.43.72s17.71 7.93 17.71 17.71Zm-16.32 1.45h4.14l.2-4.01-4.34-.02.02-3.32c0-.49.41-1.25.97-1.25l3.22-.03.14-3.78c-1.51-.08-3.01-.23-4.46.04-2.24.41-3.86 2.07-4.08 4.36l-.07 4.02-2.87.02v3.97h2.92v11.06h4.21z"/><path fill="#fff" d="M19.81 19.88v11.06H15.6V19.88h-2.91v-3.97l2.86-.02.07-4.02c.22-2.28 1.84-3.95 4.08-4.36 1.45-.27 2.95-.12 4.46-.04l-.14 3.78-3.22.03c-.56 0-.97.77-.97 1.25l-.02 3.32 4.34.02-.2 3.99h-4.14Z"/>
  </symbol>
  <symbol id="icon-instagram" viewBox="0 0 36.85 36.85">
    <circle cx="23.93" cy="12.77" r="1.25" fill="#fff"/><path fill="#0b5d5e" d="M36.14 18.43c0 9.78-7.93 17.71-17.71 17.71S.72 28.21.72 18.43 8.64.72 18.43.72s17.71 7.93 17.71 17.71m-7.38 4.34-.02-8.96c0-3.12-2.57-5.76-5.71-5.77H13.9c-3.12-.02-5.83 2.49-5.83 5.64v9.41c0 2.9 2.47 5.57 5.39 5.57h9.85c3.09 0 5.45-2.83 5.45-5.89"/><path fill="#fff" d="M28.76 22.77c0 3.07-2.35 5.9-5.45 5.9h-9.85c-2.93 0-5.39-2.68-5.39-5.57v-9.41c0-3.15 2.71-5.66 5.83-5.65h9.13c3.14.02 5.71 2.66 5.71 5.78l.02 8.96Zm-5.67 4.19c2.29 0 3.93-2.01 3.92-4.16v-8.99c-.01-2.08-1.59-3.73-3.59-4.03H13.37c-2.18.32-3.61 2.14-3.61 4.31l.03 8.85c0 2.24 1.89 4.05 4.1 4.04l9.19-.03Z"/><path fill="#0b5d5e" d="m23.09 26.96-9.19.03c-2.22 0-4.1-1.8-4.1-4.04l-.03-8.85c0-2.17 1.43-3.99 3.61-4.31h10.05c2 .3 3.58 1.95 3.58 4.03v8.99c.01 2.15-1.63 4.15-3.91 4.16Zm2.09-14.19a1.25 1.25 0 1 0-2.5 0 1.25 1.25 0 0 0 2.5 0m-1.5 5.61c0-2.92-2.37-5.29-5.29-5.29s-5.29 2.37-5.29 5.29 2.37 5.29 5.29 5.29 5.29-2.37 5.29-5.29"/><path fill="#fff" d="M23.68 18.38c0 2.92-2.37 5.29-5.29 5.29s-5.29-2.37-5.29-5.29 2.37-5.29 5.29-5.29 5.29 2.37 5.29 5.29m-1.73 0c0-1.96-1.59-3.56-3.56-3.56s-3.56 1.59-3.56 3.56 1.59 3.56 3.56 3.56 3.56-1.59 3.56-3.56"/><circle cx="18.4" cy="18.38" r="3.56" fill="#0b5d5e"/>
  </symbol>
  <symbol id="icon-tiktok" viewBox="0 0 36.85 36.85">
    <circle cx="18.43" cy="18.43" r="17.71" fill="#d7db81"/><path fill="#d7db81" d="m22.64 22.28.04-7.06c1.57 1.03 3.17 1.57 5.1 1.59v-3.6c-2.97-.1-5.14-2.38-5.16-5.2l-3.61-.04-.11 15.33c-.01 1.87-2.23 2.92-3.72 2.57-1.84-.43-2.87-2.17-2.39-3.95.45-1.69 2.2-2.69 4-2.21V16a6.79 6.79 0 0 0-6.78 3.33c-1.42 2.48-1.2 5.43.56 7.68 1.85 2.36 5.05 3.17 7.8 2.06s4.27-3.72 4.28-6.81Z"/><path fill="#fff" d="M22.64 22.28c-.02 3.08-1.57 5.71-4.28 6.81s-5.94.3-7.8-2.06-1.99-5.21-.56-7.68c1.32-2.3 3.96-3.7 6.78-3.33v3.71c-1.81-.48-3.55.53-4 2.21-.47 1.78.55 3.52 2.39 3.95 1.49.35 3.7-.7 3.72-2.57L19 7.99l3.61.04c.03 2.81 2.2 5.09 5.16 5.2v3.6c-1.92-.01-3.52-.55-5.09-1.59l-.04 7.06Z"/>
  </symbol>
  <symbol id="icon-cart" viewBox="0 0 36.85 36.85">
    <path fill="#e95643" d="M36.03 18.43c0 9.72-7.88 17.6-17.6 17.6S.83 28.15.83 18.43 8.7.83 18.43.83s17.6 7.88 17.6 17.6m-22.57 3.68h11.5c.38-.04.56-.28.64-.63l1.92-8.19c.09-.39-.36-.72-.73-.69H11.2l-.65-2.74H6.64c-.41 0-.72.28-.73.68 0 .31.25.68.63.69h2.92l3.22 13.66c.1.42.37.59.79.59h10.8c.43 0 .72-.32.7-.71-.01-.36-.29-.66-.71-.66H13.89l-.46-2Zm2.7 5.41c0-.81-.66-1.47-1.47-1.47s-1.47.66-1.47 1.47.66 1.47 1.47 1.47 1.47-.66 1.47-1.47m8.15 0c0-.81-.66-1.47-1.47-1.47s-1.47.66-1.47 1.47.66 1.47 1.47 1.47 1.47-.66 1.47-1.47"/><path fill="#fff" d="m13.46 22.11.46 2h10.37c.41 0 .69.29.71.66.01.39-.27.71-.7.71H13.5c-.42 0-.7-.18-.79-.59L9.49 11.24H6.57c-.38-.01-.64-.38-.63-.7 0-.39.32-.68.73-.68h3.91l.65 2.74h15.59c.36-.03.82.3.73.69l-1.92 8.19c-.08.35-.26.59-.64.63h-11.5Zm.98-5.43-.32-2.71h-2.6l.64 2.72h2.28Zm3.6 0v-2.72h-2.69l.36 2.72zm3.62 0 .36-2.71h-2.65v2.72h2.29Zm3.66 0 .64-2.71h-2.53l-.42 2.72h2.31Zm-10.41 4.05-.32-2.72h-2.12l.64 2.73h1.8Zm3.11.01v-2.72h-2.14l.37 2.73h1.77Zm3.09 0 .37-2.72h-2.11v2.73h1.73Zm3.26 0 .64-2.72h-2.2l-.42 2.73h1.98Z"/><circle cx="22.84" cy="27.52" r="1.47" fill="#fff"/><circle cx="14.61" cy="27.52" r="1.47" fill="#fff"/><path fill="#e95643" d="M18.04 16.68h-2.33l-.37-2.71h2.7zM21.66 16.68l-2.29.01v-2.72h2.65zM14.44 16.68h-2.28l-.64-2.71h2.6zM25.32 16.68l-2.31.01.42-2.72h2.53zM24.37 20.74h-1.98l.42-2.72h2.2zM14.91 20.73l-1.79.02-.65-2.73 2.12-.01zM18.02 20.74l-1.77.01-.36-2.73h2.14zM21.11 20.74h-1.74v-2.72h2.11z"/>
  </symbol>
  <symbol id="icon-profile" viewBox="0 0 36.85 36.85">
    <path fill="#0b5d5e" d="m36 17.53-.04-.67c-.06-1.07-.28-2.09-.56-3.11C33.76 7.8 29.08 3.1 23.13 1.46c-1.08-.3-2.18-.53-3.31-.58l-.54-.02s-.11-.01-.11-.03h-1.48l-.62.06c-1.64.13-3.25.48-4.79 1.05A17.6 17.6 0 0 0 1.46 13.71c-.3 1.09-.49 2.19-.58 3.32l-.05.65v1.48l.02.15.04.67c.72 8.43 7.49 15.21 15.92 15.96l.79.04s.12.01.12.03h1.45s.06-.03.08-.03l.54-.02c6.81-.51 12.73-4.98 15.13-11.39.58-1.54.93-3.15 1.06-4.8l.02-.62.04-.04v-1.45l-.03-.15Zm-9.38 10.11c-.51 0-.89-.39-.89-.92 0-2.53-1.38-4.86-3.61-6.1-2.33-1.29-5.22-1.26-7.5.06a6.98 6.98 0 0 0-3.5 6.04c0 .52-.36.91-.86.92s-.91-.39-.89-.93c.03-3.64 2.18-6.74 5.57-8.13a6.367 6.367 0 0 1-2.22-8.14 6.36 6.36 0 0 1 7.77-3.2C22.74 8 24.36 10 24.7 12.3c.37 2.48-.71 4.89-2.8 6.28 3.35 1.37 5.52 4.48 5.56 8.1 0 .53-.33.95-.86.96Z"/><circle cx="18.43" cy="13.26" r="4.62" fill="#0b5d5e"/>
  </symbol>
  <symbol id="icon-whatsapp" viewBox="0 0 36.85 36.85">
    <path fill="#b2b0d8" d="M36.14 18.43c0 9.78-7.93 17.71-17.71 17.71S.71 28.21.71 18.43 8.64.71 18.43.71s17.71 7.93 17.71 17.71ZM7.71 28.87l5.63-1.46c4.8 2.59 10.63 1.2 13.79-3.13s2.6-10.22-1.16-13.91c-3.83-3.77-9.87-4.1-14.1-.79s-5.36 9.11-2.68 13.77l-1.48 5.51Z"/><path fill="#fff" d="m7.71 28.87 1.48-5.51c-2.68-4.67-1.47-10.52 2.68-13.77s10.27-2.98 14.1.79c3.75 3.69 4.26 9.65 1.16 13.91s-8.98 5.72-13.79 3.13l-5.63 1.46Zm2.53-2.51 3.38-.83c3.99 2.5 9.13 1.57 11.94-2.09s2.38-8.78-.96-11.94-8.49-3.23-11.94-.28-4.15 8.06-1.55 11.86z"/><path fill="#b2b0d8" d="m10.24 26.36.87-3.28c-2.6-3.8-1.89-8.91 1.55-11.86s8.66-2.83 11.94.28 3.72 8.34.96 11.94-7.95 4.59-11.94 2.09zm10.93-7.1-1.3 1.54c-1.91-.69-3.27-1.89-4.16-3.59l1.01-1.36-1.11-2.52c-.28-.65-1.5-.19-1.87.28-.86 1.11-.92 2.48-.24 3.72 1.54 2.83 4.27 5.31 7.52 5.79.91.13 1.9-.29 2.47-1 .36-.44.43-1.1.35-1.63l-2.67-1.24Z"/><path fill="#fff" d="m21.17 19.26 2.67 1.24c.08.53 0 1.18-.35 1.63-.57.71-1.55 1.14-2.47 1-3.26-.47-5.98-2.96-7.52-5.79-.68-1.24-.62-2.62.24-3.72.37-.47 1.58-.93 1.87-.28l1.11 2.52-1.01 1.36c.89 1.7 2.25 2.9 4.16 3.59l1.3-1.54Z"/>
  </symbol>
  <symbol id="icon-email" viewBox="0 0 36.85 36.85">
    <path fill="#fff" d="m28.79 24.85-6.23-6.43 6.24-5.75z"/><path fill="#e95643" d="M36.14 18.43c0 9.78-7.93 17.71-17.71 17.71S.71 28.21.71 18.43 8.64.71 18.43.71s17.71 7.93 17.71 17.71Zm-17.58 2.16 9.4-8.69H8.85l8.82 8.79c.26.25.62.23.9-.1Zm-4.62-2.06-5.89-5.85v12.19zm14.85 6.32V12.66l-6.23 5.75 6.23 6.43Zm-14.07-5.54-5.89 6.38h19.16l-6.24-6.53-2.61 2.39c-.6.57-1.47.57-2.11.06l-2.32-2.3Z"/><path fill="#fff" d="M18.56 20.59c-.28.33-.64.35-.9.1L8.84 11.9h19.12z"/><path fill="#fff" d="m14.72 19.31 2.32 2.3c.64.51 1.51.51 2.11-.06l2.61-2.39L28 25.69H8.84l5.89-6.38ZM13.94 18.53l-5.88 6.34-.01-12.19z"/>
  </symbol>
  <symbol id="icon-add" viewBox="0 0 36.85 36.85">
    <circle cx="18.54" cy="18.42" r="17.71" fill="#b2b0d8"/><g fill="#fff"><path d="M9.97 13.17c-2.52 4.14-1.74 9.43 1.78 12.66s8.86 3.54 12.73.69 5.19-7.94 3.17-12.31-6.71-6.66-11.39-5.57c-.62.14-1.21-.19-1.37-.8s.25-1.21.84-1.35c5.71-1.34 11.49 1.54 13.91 6.75s.82 11.66-3.89 15.09-11.32 3.05-15.6-.97-5.14-10.55-1.94-15.52c.3-.46 1.08-.44 1.46-.17.47.35.64.95.31 1.49Z"/><path d="M19.64 22.62c0 .65-.54 1.09-1.11 1.09s-1.1-.45-1.1-1.07v-3.11h-3.17c-.59-.08-1.01-.55-1.01-1.11s.42-1.03 1.01-1.11h3.16v-3.16c.09-.6.54-1.01 1.12-1.01.52 0 1.09.41 1.09 1.01l.02 3.16h3.11c.62.01 1.07.55 1.06 1.11s-.44 1.1-1.06 1.11h-3.11v3.09ZM11.62 8.43c.64-.14 1.18.28 1.31.86s-.26 1.19-.87 1.31c-.57.11-1.16-.24-1.29-.84-.12-.57.18-1.19.85-1.33"/></g>
  </symbol>
  <symbol id="icon-search" viewBox="0 0 36.85 36.85">
    <circle cx="18.43" cy="18.43" r="17.71" fill="#0b5d5e"/><g fill="#fff"><path d="m26.04 28.95-1.21-1.19-1.97-1.92-.97-.96c-4.24 2.66-9.79 1.56-12.74-2.48-2.42-3.31-2.46-7.84 0-11.18 1.8-2.5 4.71-3.98 7.78-3.95s5.95 1.54 7.73 4.07a9.48 9.48 0 0 1 .14 10.7l3.84 3.81c.32.31.61.59.77 1.02.35.89-.02 1.89-.79 2.39-.82.53-1.85.39-2.57-.31ZM25.03 16.8c0-4.52-3.66-8.18-8.18-8.18s-8.18 3.66-8.18 8.18 3.66 8.18 8.18 8.18 8.18-3.66 8.18-8.18m.93 10.18 1.07 1.05c.28.27.66.27.94.02.25-.23.29-.66.02-.93l-.67-.66-3.36-3.33c-.25.3-.49.52-.75.76l-.23.21 1.04 1.01L25.95 27Z"/><path d="M21.94 17.46c-.12-.96-.36-1.88-.81-2.73-.82-1.57-2.32-2.59-4.08-2.7-.22-.01-.31-.3-.28-.45.04-.23.23-.36.47-.34 2 .17 3.71 1.36 4.63 3.14.47.91.73 1.88.87 2.9.03.25-.06.46-.29.51-.22.05-.47-.06-.5-.33Z"/></g>
  </symbol>
  <symbol id="icon-trash" viewBox="0 0 36.85 36.85">
    <circle cx="18.43" cy="18.43" r="17.71" fill="#d7db81"/><g fill="#fff"><path d="m26.03 11.8-15.08.02c-.96 0-1.28-.96-1.27-1.75s.21-1.73 1.14-1.79c1.23-.09 2.5-.03 3.8-.04-.04-.97.57-1.62 1.47-1.62h4.79c.88 0 1.53.65 1.45 1.61l3.65.03c.91 0 1.22.92 1.22 1.73 0 .66-.19 1.81-1.16 1.81Zm0-.98c.2-.58.18-1.08-.01-1.59h-3.94c-.19 0-.49-.1-.58-.22-.34-.41.02-1.03-.36-1.38H15.9c-.46 0-.05 1.56-.77 1.57l-4.31.05c-.18.55-.18.99 0 1.57h15.22ZM23.54 30.24H13.4c-.7 0-1.3-.6-1.37-1.3l-1.58-14.92c-.09-.85.41-1.62 1.33-1.61h13.6c.86 0 1.32.84 1.23 1.61l-1.6 15.01c-.08.72-.77 1.21-1.47 1.21m.08-1c.21-.07.39-.23.41-.42l1.59-14.98c.02-.21-.15-.39-.34-.43H11.76c-.24 0-.36.27-.33.47l1.59 14.94c.03.27.28.42.53.42h10.08Z"/><path d="M19.14 26.99c0 .43-.35.62-.66.61s-.61-.27-.61-.63V15.81c0-.35.26-.58.55-.63.24-.04.71.12.71.49v11.32ZM16.16 26.73c.05.5-.11.8-.55.86-.32.05-.66-.2-.7-.61l-1.08-11.17c-.04-.37.32-.63.58-.63.41-.01.64.22.68.65l1.05 10.91ZM22.15 26.97c-.04.44-.33.64-.66.63-.36-.01-.64-.3-.6-.72l1.07-11.07c.04-.39.29-.64.64-.63s.66.3.62.73l-1.07 11.07Z"/></g>
  </symbol>
</svg>