<?xml version="1.0" encoding="UTF-8"?>
<svg id="Capa_1" data-name="Capa 1" xmlns="http://www.w3.org/2000/svg" viewBox="0 0 308.41 282.29">
  <defs>
    <style>
      .cls-1 {
        fill: #085d5e;
      }
    </style>
  </defs>
  <g>
    <path class="cls-1" d="M46.33,238.35c1.1.56,1.95,1.36,2.53,2.42.59,1.05.88,2.3.88,3.75s-.29,2.68-.88,3.72c-.59,1.04-1.43,1.84-2.53,2.4-1.1.55-2.43.83-3.97.83h-4.13v-13.95h4.13c1.54,0,2.87.28,3.97.84ZM46.8,248.77c1.02-1.02,1.53-2.44,1.53-4.26s-.51-3.27-1.53-4.3c-1.02-1.03-2.5-1.55-4.44-1.55h-2.73v11.64h2.73c1.94,0,3.42-.51,4.44-1.53Z"/>
    <path class="cls-1" d="M53.71,238.65v5.21h5.29v1.16h-5.29v5.29h5.89v1.16h-7.29v-13.97h7.29v1.16h-5.89Z"/>
    <path class="cls-1" d="M70.52,237.51v1.16h-3.87v12.79h-1.4v-12.79h-3.89v-1.16h9.16Z"/>
    <path class="cls-1" d="M80.82,248.15h-6.35l-1.22,3.31h-1.48l5.09-13.77h1.58l5.07,13.77h-1.48l-1.22-3.31ZM80.4,246.99l-2.75-7.54-2.75,7.54h5.51Z"/>
    <path class="cls-1" d="M87.14,250.32h5.01v1.14h-6.41v-13.95h1.4v12.81Z"/>
    <path class="cls-1" d="M95.55,250.32h5.01v1.14h-6.41v-13.95h1.4v12.81Z"/>
    <path class="cls-1" d="M103.95,238.65v5.21h5.29v1.16h-5.29v5.29h5.89v1.16h-7.29v-13.97h7.29v1.16h-5.89Z"/>
    <path class="cls-1" d="M114.4,251.12c-.7-.32-1.25-.77-1.65-1.34-.4-.57-.61-1.21-.64-1.92h1.48c.07.68.37,1.27.9,1.79.53.51,1.31.77,2.34.77.94,0,1.69-.24,2.25-.73.55-.49.83-1.1.83-1.85,0-.6-.15-1.08-.46-1.45-.31-.37-.69-.64-1.14-.82-.45-.18-1.08-.38-1.88-.59-.93-.25-1.67-.5-2.22-.74-.55-.24-1.01-.61-1.4-1.12-.39-.5-.58-1.19-.58-2.06,0-.72.19-1.36.56-1.93.37-.57.9-1.01,1.58-1.33s1.46-.48,2.34-.48c1.29,0,2.33.32,3.12.95.79.63,1.25,1.45,1.37,2.45h-1.52c-.09-.57-.41-1.08-.94-1.53-.53-.45-1.25-.67-2.16-.67-.84,0-1.54.22-2.1.67-.56.45-.84,1.05-.84,1.83,0,.59.15,1.06.46,1.42.31.36.69.63,1.15.82.46.19,1.08.39,1.87.6.9.25,1.64.5,2.2.75.56.25,1.03.62,1.42,1.13.39.51.58,1.18.58,2.04,0,.65-.17,1.27-.52,1.86-.35.59-.86,1.06-1.54,1.42s-1.49.54-2.44.54-1.73-.16-2.43-.48Z"/>
    <path class="cls-1" d="M140.99,254.19l-3.11-2.89c-.68.2-1.39.3-2.14.3-1.29,0-2.46-.3-3.51-.91-1.05-.61-1.88-1.45-2.48-2.54-.61-1.08-.91-2.31-.91-3.68s.3-2.6.91-3.68,1.43-1.93,2.48-2.54c1.05-.61,2.22-.91,3.51-.91s2.48.3,3.53.91,1.88,1.45,2.48,2.54.9,2.31.9,3.68-.31,2.66-.94,3.76-1.48,1.94-2.57,2.53l3.73,3.43h-1.88ZM130.99,247.6c.48.9,1.13,1.59,1.96,2.07.82.48,1.76.72,2.79.72s1.97-.24,2.79-.72c.82-.48,1.48-1.17,1.96-2.07.48-.9.72-1.94.72-3.12s-.24-2.22-.72-3.11c-.48-.89-1.13-1.58-1.96-2.06-.83-.48-1.76-.72-2.79-.72s-1.97.24-2.79.72c-.83.48-1.48,1.17-1.96,2.06-.48.89-.72,1.93-.72,3.11s.24,2.23.72,3.12Z"/>
    <path class="cls-1" d="M146.56,237.51v8.78c0,1.38.33,2.41.99,3.07s1.56,1,2.7,1,2.04-.33,2.68-.99c.65-.66.97-1.69.97-3.08v-8.78h1.4v8.76c0,1.77-.47,3.1-1.41,3.99s-2.16,1.34-3.66,1.34-2.72-.45-3.66-1.34-1.41-2.22-1.41-3.99v-8.76h1.4Z"/>
    <path class="cls-1" d="M159.81,238.65v5.21h5.29v1.16h-5.29v5.29h5.89v1.16h-7.29v-13.97h7.29v1.16h-5.89Z"/>
    <path class="cls-1" d="M173.72,239.25c.35-1.23.86-2.53,1.53-3.88.67-1.36,1.46-2.67,2.39-3.94.93-1.27,1.96-2.42,3.09-3.47s2.32-1.87,3.58-2.49c1.26-.62,2.56-.96,3.9-1.04,1.34-.08,2.68.24,4.01.94.85.63,1.48,1.34,1.88,2.13.4.79.6,1.6.6,2.43s-.2,1.65-.6,2.47c-.4.82-.98,1.56-1.73,2.24-.3.25-.63.47-.98.66-.35.19-.73.33-1.13.43-.58.13-1.13.13-1.66,0s-1.01-.35-1.43-.66c-.43-.31-.77-.7-1.02-1.17-.25-.46-.38-.97-.38-1.53,0-.65.13-1.23.4-1.73.26-.5.62-.97,1.07-1.4.25-.25.55-.38.89-.38s.65.09.92.26c.3.23.49.51.57.85.08.34.01.67-.19,1-.08.13-.17.25-.28.38-.11.13-.21.25-.28.38-.05.1-.1.24-.15.42s-.08.35-.09.51.02.3.09.41c.08.11.23.15.45.09.63-.13,1.17-.42,1.64-.89.46-.46.8-.98,1-1.55.2-.57.25-1.14.13-1.73-.11-.59-.45-1.09-1-1.49-.93-.43-1.87-.58-2.81-.45-.94.13-1.87.45-2.77.96-.9.52-1.77,1.18-2.6,2-.83.82-1.59,1.68-2.28,2.58-.69.9-1.31,1.81-1.85,2.71-.54.9-.96,1.72-1.26,2.45-.28.63-.57,1.36-.87,2.21-.3.84-.56,1.72-.77,2.64-.21.92-.37,1.85-.47,2.81-.1.96-.09,1.85.04,2.7.13.84.39,1.6.79,2.28.4.68.98,1.21,1.73,1.58,1.08.43,2.14.5,3.17.21,1.03-.29,1.98-.77,2.87-1.45.88-.68,1.67-1.47,2.37-2.38.7-.91,1.27-1.77,1.7-2.6.15-.2.25-.35.3-.45.2-.25.45-.4.75-.43.3-.04.6,0,.9.13.28.15.5.36.68.62s.21.55.11.85c-.05.25-.13.49-.23.72-.1.23-.21.44-.34.64-.5.98-1.14,1.9-1.92,2.75-.78.85-1.64,1.61-2.58,2.28-.94.67-1.93,1.19-2.96,1.56-1.03.38-2.05.57-3.07.58-1.02.01-2-.2-2.94-.62-.94-.43-1.79-1.12-2.54-2.07-.58-.78-.97-1.73-1.19-2.85-.21-1.12-.31-2.28-.3-3.49.01-1.21.13-2.4.34-3.58.21-1.18.47-2.24.77-3.17Z"/>
    <path class="cls-1" d="M203.09,243.81c-.05.83-.2,1.67-.43,2.51-.24.84-.57,1.63-.98,2.36-.41.73-.92,1.39-1.51,1.98-.59.59-1.26,1.06-2.02,1.41-.68.3-1.35.45-2.02.45s-1.29-.11-1.87-.34c-.58-.23-1.08-.57-1.51-1.02s-.72-1-.87-1.66c-.28-1.06-.26-2.06.06-3.02s.83-1.87,1.56-2.75c.2-.28.42-.51.64-.72.23-.2.36-.48.41-.83.23-1.06.7-1.87,1.41-2.43s1.58-.87,2.58-.92c.75.03,1.42.18,2,.45.58.28,1.06.64,1.45,1.09.39.45.67.98.85,1.58.18.6.25,1.22.23,1.85ZM195.36,245.47c-.6.75-.92,1.46-.94,2.11-.03.65.13,1.17.45,1.55.33.38.78.58,1.36.62.58.04,1.17-.17,1.77-.62.48-.35.9-.8,1.26-1.36.36-.55.66-1.13.89-1.73.23-.6.36-1.19.4-1.75.04-.57-.03-1.05-.21-1.45-.08-.25-.23-.49-.45-.72-.23-.23-.48-.4-.75-.51-.28-.11-.55-.14-.81-.08-.26.06-.46.25-.58.55-.13.28-.19.57-.21.89s.02.62.09.92c.05.13.11.26.17.4.06.14.09.28.09.43.05.43-.06.77-.34,1.04-.28.26-.68.4-1.21.4-.13,0-.26-.1-.42-.3-.15-.2-.34-.33-.57-.38Z"/>
    <path class="cls-1" d="M211.64,243.13c-.13.08-.24.14-.34.19-.1.05-.19.1-.26.15-.38.3-.77.7-1.17,1.19-.4.49-.8,1-1.19,1.53-.39.53-.76,1.05-1.11,1.56-.35.52-.67.96-.94,1.34-.2.28-.38.55-.53.83-.15.28-.3.55-.45.83-.3.53-.75.77-1.36.72-.6,0-.97-.3-1.09-.9-.05-.2-.04-.39.04-.57.2-1.36.45-2.8.75-4.33.3-1.53.72-2.98,1.24-4.34.05-.12.1-.25.15-.38.05-.12.11-.25.19-.38.2-.28.45-.47.73-.58.29-.11.57-.12.85-.02.35.1.61.28.77.55.16.26.22.56.17.89-.05.23-.13.45-.24.68s-.21.45-.28.68c-.05.15-.08.3-.09.45-.01.15-.04.34-.09.57.28-.33.52-.62.73-.89.21-.26.41-.5.6-.72.19-.21.38-.42.57-.62s.41-.4.66-.6c.55-.4,1.12-.72,1.7-.94.65-.28,1.24-.29,1.77-.06.53.24.89.66,1.09,1.26.25.83.24,1.67-.04,2.53-.25.73-.51,1.56-.77,2.49-.26.93-.51,1.76-.74,2.49-.1.3-.16.6-.19.89-.03.29.04.57.19.85.13.28.13.55,0,.83-.13.28-.33.49-.6.64-.58.33-1.08.31-1.51-.04-.6-.43-.93-.98-.98-1.66.02-.28.06-.54.11-.79s.1-.52.15-.79c.18-.65.39-1.41.64-2.26.25-.85.48-1.61.68-2.26.05-.13.09-.27.11-.43.02-.16.05-.34.08-.55Z"/>
    <path class="cls-1" d="M218.05,246.94c-.13.3-.14.56-.04.77.1.21.28.42.53.62.23.2.48.36.75.49.28.13.59.16.94.11.38-.03.74-.09,1.09-.19.35-.1.68-.25.98-.45.13-.1.27-.2.43-.3.16-.1.32-.19.47-.26.28-.13.57-.16.87-.11.3.05.57.18.79.38.45.45.5.97.15,1.54-.15.2-.34.37-.57.49-1.28,1.03-2.85,1.51-4.71,1.43-.68-.02-1.33-.18-1.94-.45s-1.15-.63-1.6-1.07c-.45-.44-.79-.94-1.02-1.51s-.3-1.15-.23-1.75c.2-1.56.7-2.98,1.49-4.26.79-1.28,1.95-2.38,3.49-3.28.25-.18.52-.33.81-.45.29-.12.58-.24.89-.34.8-.2,1.56-.18,2.26.06.7.24,1.27.68,1.7,1.34.28.5.44.99.49,1.47.05.48-.04.97-.26,1.47-.4.93-.97,1.69-1.72,2.28-.74.59-1.62,1.06-2.62,1.41-.38.13-.78.22-1.21.28-.43.06-.85.13-1.28.21-.15.05-.3.07-.45.06s-.31,0-.49.02ZM218.77,244.33c.83-.08,1.54-.25,2.13-.53.59-.28,1.1-.64,1.53-1.09.28-.28.49-.59.64-.94.15-.43-.03-.77-.53-1.02-.85.35-1.59.81-2.21,1.38-.62.57-1.14,1.3-1.56,2.21Z"/>
    <path class="cls-1" d="M226.01,247.39c-.05-.9.04-1.73.26-2.47.23-.74.53-1.45.9-2.13.3-.58.66-1.1,1.07-1.56.41-.46.87-.91,1.38-1.34.63-.55,1.36-.94,2.19-1.17,1.26-.28,2.35,0,3.28.83.5.43.82.89.94,1.39.13.5.13,1.04,0,1.62-.15.78-.49,1.45-1.02,2-.1.08-.19.16-.28.25-.09.09-.18.16-.28.21-.25.18-.54.25-.87.21-.33-.04-.6-.17-.83-.4-.25-.2-.41-.44-.47-.72-.06-.28,0-.55.17-.83.13-.2.25-.4.38-.58.13-.19.24-.38.34-.58.05-.08.08-.18.09-.32.01-.14-.02-.25-.09-.32-.1-.15-.23-.22-.38-.21-.15.01-.3.06-.45.13-.2.08-.4.19-.6.34-.8.65-1.46,1.38-1.96,2.17-.5.79-.82,1.69-.94,2.7-.05.48-.04.9.04,1.28.1.38.29.65.57.83.28.18.63.25,1.06.23.3-.05.58-.13.85-.23.26-.1.53-.23.81-.38.23-.12.45-.26.66-.41.21-.15.45-.28.7-.38.3-.18.62-.23.96-.15s.61.24.81.49c.23.28.34.57.34.87s-.14.57-.41.79c-.68.58-1.41,1.04-2.19,1.4-.78.35-1.65.55-2.6.6-.5.03-.98-.04-1.43-.19-.45-.15-.87-.37-1.24-.66s-.7-.63-.98-1.04c-.28-.4-.48-.84-.6-1.32-.05-.2-.08-.38-.09-.55-.01-.16-.03-.29-.06-.4Z"/>
    <path class="cls-1" d="M243.72,236.57c.25.05.47.16.66.32.19.16.31.42.36.77.05.35,0,.69-.13,1-.14.31-.4.5-.77.55h-1.77c-.25.8-.51,1.67-.77,2.58-.26.92-.51,1.8-.74,2.66-.23.85-.43,1.65-.6,2.39-.18.74-.31,1.35-.41,1.83.18.02.35.04.51.04s.32.03.47.08c.5.13.83.4.98.83.15.43.05.83-.3,1.21-.33.38-.77.64-1.32.79-.55.15-1.08.15-1.58,0-.78-.28-1.27-.74-1.47-1.39-.2-.65-.25-1.33-.15-2.04.28-1.63.59-3.14.94-4.52s.7-2.85,1.06-4.41l-1.09-.08c-.28-.05-.51-.16-.7-.32-.19-.16-.3-.47-.32-.92,0-.35.13-.67.4-.94.26-.28.63-.43,1.11-.45l1.51-.04c.18-.48.32-.94.43-1.38.11-.44.22-.87.32-1.28.1-.41.21-.83.34-1.26.13-.43.29-.87.49-1.32.18-.43.42-.77.72-1.02.3-.25.69-.33,1.17-.23.3.08.52.2.66.38.14.18.21.37.23.58.01.21,0,.43-.06.66-.05.23-.11.45-.19.68-.28,1-.49,1.83-.64,2.49-.15.65-.26,1.23-.34,1.73l1.02.04Z"/>
    <path class="cls-1" d="M251.11,241.17l.45-.79c.2-.25.45-.4.73-.45.29-.05.57.03.85.23.28.2.49.44.64.72.15.28.2.59.15.94-.05.13-.1.25-.15.36-.05.11-.09.26-.11.43-.23.88-.43,1.74-.6,2.58-.18.84-.36,1.7-.57,2.58-.13.48-.17.97-.13,1.49.04.52.23.92.58,1.22.4.33.6.7.6,1.13-.05.35-.3.62-.74.79-.44.18-.85.18-1.23,0-.5-.23-.87-.51-1.09-.85-.23-.34-.43-.84-.6-1.49-.5.3-.97.57-1.41.81-.44.24-.91.43-1.41.58-.55.1-1.1.08-1.64-.08-.54-.15-1.02-.4-1.45-.75-.43-.35-.77-.8-1.04-1.36-.26-.55-.4-1.18-.4-1.88,0-2.94,1.12-5.15,3.35-6.63,1.03-.63,1.97-.85,2.81-.66.84.19,1.64.55,2.39,1.07ZM249.15,247.2c.15-.1.27-.26.36-.49.09-.23.16-.46.23-.72.06-.25.11-.5.15-.75.04-.25.07-.46.09-.64.02-.4-.04-.74-.19-1.02-.15-.28-.35-.48-.58-.62-.24-.14-.51-.19-.81-.17-.3.03-.58.14-.83.34-.73.5-1.24,1.1-1.55,1.79-.3.69-.45,1.46-.45,2.32.08.73.26,1.17.57,1.32.3.15.64.16,1.02.02.38-.14.75-.36,1.13-.66.38-.3.67-.54.87-.72Z"/>
    <path class="cls-1" d="M262.72,243.13c-.13.08-.24.14-.34.19-.1.05-.19.1-.26.15-.38.3-.77.7-1.17,1.19-.4.49-.8,1-1.19,1.53-.39.53-.76,1.05-1.11,1.56-.35.52-.67.96-.94,1.34-.2.28-.38.55-.53.83-.15.28-.3.55-.45.83-.3.53-.75.77-1.36.72-.6,0-.97-.3-1.09-.9-.05-.2-.04-.39.04-.57.2-1.36.45-2.8.75-4.33.3-1.53.72-2.98,1.24-4.34.05-.12.1-.25.15-.38.05-.12.11-.25.19-.38.2-.28.45-.47.73-.58.29-.11.57-.12.85-.02.35.1.61.28.77.55.16.26.22.56.17.89-.05.23-.13.45-.24.68s-.21.45-.28.68c-.05.15-.08.3-.09.45-.01.15-.04.34-.09.57.28-.33.52-.62.73-.89.21-.26.41-.5.6-.72.19-.21.38-.42.57-.62s.41-.4.66-.6c.55-.4,1.12-.72,1.7-.94.65-.28,1.24-.29,1.77-.06.53.24.89.66,1.09,1.26.25.83.24,1.67-.04,2.53-.25.73-.51,1.56-.77,2.49-.26.93-.51,1.76-.74,2.49-.1.3-.16.6-.19.89-.03.29.04.57.19.85.13.28.13.55,0,.83-.13.28-.33.49-.6.64-.58.33-1.08.31-1.51-.04-.6-.43-.93-.98-.98-1.66.02-.28.06-.54.11-.79s.1-.52.15-.79c.18-.65.39-1.41.64-2.26.25-.85.48-1.61.68-2.26.05-.13.09-.27.11-.43.02-.16.05-.34.08-.55Z"/>
  </g>
  <g>
    <path class="cls-1" d="M145.93,200.6h-.06c-1.05,0-1.29-1.49-.3-1.84,20.82-7.39,45.33-23.04,50.89-46.08.32-1.31.24-2.7-.24-3.96-1.03-2.75-1.62-5.76-1.62-9.09,0-1.91.19-3.72.54-5.43.42-2.01.1-4.11-.83-5.93-5.51-10.75-17.3-16.18-30.44-16.18-7.84,0-15.65,2.16-21.63,6.54h0c-6.34,4.69-10.61,11.88-10.61,21.7,0,.43,0,.87.02,1.31l-.04.1c.25,7.35,2.6,16.03,11.43,16.03,4.64,0,9.49-3.16,9.49-9.07,0-5.17-2.27-9.7-2.27-14.98,0-11.81,6.81-17.41,13.52-17.41,9.91,0,13.62,10.02,13.62,18.78,0,30.63-22.1,48.56-45.17,63.54-.98.63-1.57,1.73-1.57,2.92v9.06c0,1.93,1.53,3.49,3.41,3.49h59.82c1.8,0,3.28-1.45,3.35-3.29l.19-5.18c.03-.82-.23-1.63-.74-2.27-1.84-2.3-3.16-4.84-3.97-7.5-.63-2.06-2.95-2.98-4.81-1.95-8.58,4.71-23.09,6.7-41.98,6.7Z"/>
    <path class="cls-1" d="M251.08,161.92c-1.31-.97-1.32-2.96,0-3.94,7.45-5.53,11.47-13.51,11.47-21.41,0-16.98-15.89-25.32-30.44-25.32-13.65,0-28.86,6.53-33.17,20.04,0,.03.02.06.03.08-.77,2.41-1.19,5.04-1.19,7.89,0,4.01.84,7.55,2.3,10.73,0,0,0,0,0,.01,2.18,4.71,5.73,8.62,9.91,12.07,1.02.84.86,2.47-.3,3.11-9.67,5.36-14.83,14.57-14.83,23.6,0,.67.04,1.34.09,2,.41,4.7,2.27,9.26,5.66,13.08,5.37,6.04,14.57,10.24,27.99,10.24,18.26,0,37.15-9.49,37.15-27.95,0-10.88-6.48-18.2-14.66-24.24ZM230.04,209.89c-12.69,0-18.16-10.55-18.16-21.63,0-.07,0-.15,0-.22.07-10.74,11.83-17.11,20.66-11.29,7.47,4.92,13.19,10.11,13.19,17.31,0,10.44-7.64,15.82-15.68,15.82ZM245.5,144.94c-1.5,5.75-8.08,8.34-13.01,5.18-8.23-5.29-14.73-10.81-14.73-18.82s4.64-15.93,13.41-15.93c10.94,0,15.37,12.13,15.37,21.52,0,2.69-.37,5.42-1.05,8.05Z"/>
    <path class="cls-1" d="M106.53,213.61c-6.06.3-11.18-3.73-11.49-9.97-.24-4.72,2.8-8.27,7.62-8.51,11.41-.57,18.92-5.95,18.31-17.99-.41-8.11-6.15-13.9-14.44-13.49-23.27,1.16-17.03,49.02-44.84,50.42-19.08.96-24.19-17.2-24.97-32.8-.44-8.83,1.34-21.34,9.11-26.91,2.16-1.54,4.68-2.83,7.36-2.96,4.72-.24,7.77,3.36,7.99,7.82.78,15.6-22.65,6.32-21.71,25.22.39,7.76,5.31,13.23,13.42,12.82,23.8-1.19,13.51-49.74,45.33-51.33,18.99-.95,24.69,16.46,25.47,32.15.59,11.77-1.57,34.75-17.17,35.54Z"/>
    <path class="cls-1" d="M173.54,18.99l5.08,17.98c.22.79,1.05,1.25,1.84,1.03l6.08-1.72c.79-.22,1.61.24,1.84,1.03h0c.22.79-.24,1.61-1.03,1.84l-6.09,1.72c-.79.22-1.25,1.04-1.03,1.83l9.74,34.83c.73,2.59,2.88,5.76,6.01,4.87,1.53-.43,2.67-1.75,3.28-3.17.17-.41.61-.65,1.04-.55h0c.44.1.75.49.72.94-.5,7.44-5.61,12.31-12.71,14.32-6.17,1.74-11.98,0-13.87-6.71l-11.22-39.73c-.22-.79-1.05-1.25-1.84-1.03l-3.76,1.06c-.79.22-1.61-.24-1.84-1.03l-.1-.35c-.18-.64.1-1.31.65-1.67,7.07-4.63,14.81-16,13.39-24.63-.12-.74.34-1.44,1.06-1.64l.9-.25c.79-.22,1.61.24,1.84,1.03Z"/>
    <path class="cls-1" d="M188.17,103.88c-1.05-7.01-25.51-10.5-46.33-5.57-10.79,2.56-12.66-6.15-16.54-14.78-.35-.79.02-1.71.82-2.02,5.76-2.16,26.44-9.9,31.86-11.93.74-.28,1.14-1.09.89-1.83-2.19-6.64-6.26-11.5-11.39-14.45-1.85-1.06-5.29-2.43-8.15-2.53-3.3-.12-6.86,0-10.62,1.07-19.19,5.42-28.05,22.51-17.96,43.1,5.8,11.85,19.63,17.25,32.02,12.73,15.12-5.51,26.7-5.06,42.07-.37,0,0,4,1.09,3.32-3.42ZM123.24,77.48c-1.86-7.62-3.11-20.42,5.94-22.98,6.53-1.84,10.73,7.21,12.12,12.13.33,1.16.62,2.4.81,3.63.1.66-.28,1.3-.9,1.56-3.1,1.29-12.27,5.12-15.96,6.67-.84.35-1.79-.12-2.01-1.01Z"/>
    <path class="cls-1" d="M248.4,48.49c14.21,7.53,16.51,21.05,10.51,32.98-.18.35-.6.5-.96.34l-32.64-13.95c-.38-.16-.83.02-.98.41-3.77,9.69-2.61,19.22,7.1,24.37,8.03,4.25,16.65,3.79,24.58-.28.32-.16.71-.08.93.2h0c.24.32.19.77-.12,1.02-11,9.1-23.86,11.76-36.15,5.25-15.94-8.44-20.42-23.02-11.98-38.96,8.27-15.61,24.09-19.65,39.7-11.38ZM226.66,65.06l17.49,6.72c.32.12.68.02.87-.26,5.43-7.67,7.67-17.71,1.87-20.78-8.05-4.27-16.35,5.21-20.62,13.29-.21.39-.02.87.39,1.03Z"/>
    <path class="cls-1" d="M132.29,114.4c-.24-.11-.53-.07-.73.11-2.85,2.53-6.15,3.65-10.94,1.42l-26.39-12.32c-.62-.29-1.18.49-.72.99,3.6,3.86,6.7,6.49,5.15,10.92-.74,2.1-3.66,3.43-6.52,3.25-1.71-.11-3.01.36-3.93.99-.26.18-.21.72.08.84,4.78,2.07,24.85,11.33,24.85,11.33,4.79,2.23,6.05,5.49,5.94,9.29,0,.27.14.52.38.63h0c.34.16.73.01.89-.32,0,0,1.06-10.51,2.94-14.29,4.45-8.94,9.31-11.96,9.31-11.96.16-.34.01-.73-.32-.89Z"/>
    <path class="cls-1" d="M96.43,112.63c.2-1.21-7.07-7.49-8.68-12.22-1.82-5.34-6.08-9.02-11.88-6.79-3.91,1.5-4.64,7.53-2.66,10.43,1.41,2.07,5.67,3.93,4.91,3.84-8.66-1.11-10.89,7.12-8.87,11.06,2.82,5.5,9.21,4.53,13.47,1.08,3.78-3.06,7.46-3.82,10.66-3.47,2.21.24,3.55-2.03,3.05-3.92Z"/>
  </g>
</svg>