<svg xmlns="http://www.w3.org/2000/svg" style="display: none;">
  <symbol id="icon-facebook" viewBox="0 0 61.94 56.03">
    <path fill="#e95643" d="M49.3 28.04c0 9.78-7.93 17.71-17.71 17.71s-17.71-7.93-17.71-17.71 7.93-17.71 17.71-17.71S49.3 18.26 49.3 28.04M32.98 29.5h4.14l.2-4.01-4.34-.02.02-3.32c0-.49.41-1.25.97-1.25l3.22-.03.14-3.78c-1.51-.08-3.01-.23-4.46.04-2.24.41-3.86 2.07-4.08 4.36l-.07 4.02-2.87.02v3.97h2.92v11.06h4.21z"/><path fill="#fff" d="M32.98 29.5v11.06h-4.21V29.5h-2.91v-3.97l2.86-.02.07-4.02c.22-2.28 1.84-3.95 4.08-4.36 1.45-.27 2.95-.12 4.46-.04l-.14 3.78-3.22.03c-.56 0-.97.77-.97 1.25l-.02 3.32 4.34.02-.2 3.99h-4.14Z"/>
  </symbol>
  <symbol id="icon-instagram" viewBox="0 0 61.94 56.03">
    <circle cx="36.02" cy="26.82" r="1.25" fill="#fff"/><path fill="#0b5d5e" d="M48.22 32.48c0 9.78-7.93 17.71-17.71 17.71S12.8 42.26 12.8 32.48s7.93-17.71 17.71-17.71 17.71 7.93 17.71 17.71m-7.37 4.34-.02-8.96c0-3.12-2.57-5.76-5.71-5.77h-9.13c-3.12-.02-5.83 2.49-5.83 5.64v9.41c0 2.9 2.47 5.57 5.39 5.57h9.85c3.09 0 5.45-2.83 5.45-5.89"/><path fill="#fff" d="M40.85 36.82c0 3.07-2.35 5.9-5.45 5.9h-9.85c-2.93 0-5.39-2.68-5.39-5.57v-9.41c0-3.15 2.71-5.66 5.83-5.65h9.13c3.14.02 5.71 2.66 5.71 5.78l.02 8.96Zm-5.67 4.2c2.29 0 3.93-2.01 3.92-4.16v-8.99c-.01-2.08-1.59-3.73-3.59-4.03H25.46c-2.18.32-3.61 2.14-3.61 4.31l.03 8.85c0 2.24 1.89 4.05 4.1 4.04l9.19-.03Z"/><path fill="#0b5d5e" d="m35.18 41.02-9.19.03c-2.22 0-4.1-1.8-4.1-4.04l-.03-8.85c0-2.17 1.43-3.99 3.61-4.31h10.05c2 .3 3.58 1.95 3.58 4.03v8.99c.01 2.15-1.63 4.15-3.91 4.16Zm2.09-14.2a1.25 1.25 0 1 0-2.5 0 1.25 1.25 0 0 0 2.5 0m-1.5 5.61c0-2.92-2.37-5.29-5.29-5.29s-5.29 2.37-5.29 5.29 2.37 5.29 5.29 5.29 5.29-2.37 5.29-5.29"/><path fill="#fff" d="M35.77 32.43c0 2.92-2.37 5.29-5.29 5.29s-5.29-2.37-5.29-5.29 2.37-5.29 5.29-5.29 5.29 2.37 5.29 5.29m-1.73 0c0-1.96-1.59-3.56-3.56-3.56s-3.56 1.59-3.56 3.56 1.59 3.56 3.56 3.56 3.56-1.59 3.56-3.56"/><circle cx="30.49" cy="32.43" r="3.56" fill="#0b5d5e"/>
  </symbol>
  <symbol id="icon-tiktok" viewBox="0 0 61.94 56.03">
    <path fill="#d7db81" d="M50.35 31.07c0 9.78-7.93 17.71-17.71 17.71s-17.71-7.93-17.71-17.71 7.93-17.71 17.71-17.71 17.71 7.93 17.71 17.71m-13.49 3.86.04-7.06c1.57 1.03 3.17 1.57 5.1 1.59v-3.6c-2.97-.1-5.14-2.38-5.16-5.2l-3.61-.04-.11 15.33c-.01 1.87-2.23 2.92-3.72 2.57-1.84-.43-2.87-2.17-2.39-3.95.45-1.69 2.2-2.69 4-2.21v-3.71a6.79 6.79 0 0 0-6.78 3.33c-1.42 2.48-1.2 5.43.56 7.68 1.85 2.36 5.05 3.17 7.8 2.06s4.27-3.72 4.28-6.81Z"/><path fill="#fff" d="M36.86 34.93c-.02 3.08-1.57 5.71-4.28 6.81s-5.94.3-7.8-2.06-1.99-5.21-.56-7.68c1.32-2.3 3.96-3.7 6.78-3.33v3.71c-1.81-.48-3.55.53-4 2.21-.47 1.78.55 3.52 2.39 3.95 1.49.35 3.7-.7 3.72-2.57l.11-15.33 3.61.04c.03 2.81 2.2 5.09 5.16 5.2v3.6c-1.92-.01-3.52-.55-5.09-1.59l-.04 7.06Z"/>
  </symbol>
  <symbol id="icon-cart" viewBox="0 0 61.94 56.03">
    <path fill="#e95643" d="M50.21 30.25c0 9.72-7.88 17.6-17.6 17.6s-17.6-7.88-17.6-17.6 7.88-17.6 17.6-17.6 17.6 7.88 17.6 17.6m-22.57 3.68h11.5c.38-.04.56-.28.64-.63l1.92-8.19c.09-.39-.36-.72-.73-.69H25.38l-.65-2.74h-3.91c-.41 0-.72.28-.73.68 0 .31.25.68.63.69h2.92l3.22 13.66c.1.42.37.59.79.59h10.8c.43 0 .72-.32.7-.71-.01-.36-.29-.66-.71-.66H28.07l-.46-2Zm2.71 5.41c0-.81-.66-1.47-1.47-1.47s-1.47.66-1.47 1.47.66 1.47 1.47 1.47 1.47-.66 1.47-1.47m8.15 0c0-.81-.66-1.47-1.47-1.47s-1.47.66-1.47 1.47.66 1.47 1.47 1.47 1.47-.66 1.47-1.47"/><path fill="#fff" d="m27.64 33.93.46 2h10.37c.41 0 .69.29.71.66.01.39-.27.71-.7.71h-10.8c-.42 0-.7-.18-.79-.59l-3.22-13.65h-2.92c-.38-.01-.64-.38-.63-.7 0-.39.32-.68.73-.68h3.91l.65 2.74H41c.36-.03.82.3.73.69l-1.92 8.19c-.08.35-.26.59-.64.63h-11.5Zm.98-5.43-.32-2.71h-2.6l.64 2.72h2.28Zm3.6 0v-2.72h-2.69l.36 2.72zm3.62 0 .36-2.71h-2.65v2.72h2.29Zm3.67 0 .64-2.71h-2.53l-.42 2.72h2.31ZM29.1 32.55l-.32-2.72h-2.12l.64 2.73h1.8Zm3.11.01v-2.72h-2.14l.37 2.73h1.77Zm3.08 0 .37-2.72h-2.11v2.73h1.73Zm3.26 0 .64-2.72h-2.2l-.42 2.73h1.98Z"/><circle cx="37.02" cy="39.34" r="1.47" fill="#fff"/><path fill="#e95643" d="M32.22 28.5h-2.33l-.36-2.71h2.7zM35.84 28.5l-2.28.01-.01-2.72h2.66zM28.62 28.5h-2.28l-.63-2.71h2.59zM39.51 28.5l-2.31.01.41-2.72h2.53zM38.55 32.56h-1.98l.42-2.72h2.2zM29.1 32.55l-1.8.02-.64-2.73 2.12-.01zM32.21 32.56l-1.77.01-.37-2.73h2.14zM35.29 32.56h-1.73l-.01-2.72h2.11z"/>
  </symbol>
  <symbol id="icon-profile" viewBox="0 0 61.94 56.03">
    <path fill="#0b5d5e" d="m51.64 27.59-.04-.67c-.06-1.07-.28-2.09-.56-3.11-1.64-5.95-6.32-10.65-12.27-12.29-1.08-.3-2.18-.53-3.31-.58l-.54-.02s-.11-.01-.11-.03h-1.48l-.62.06c-1.64.13-3.25.48-4.79 1.05-5.27 1.97-9.3 6.36-10.81 11.78-.3 1.09-.49 2.19-.58 3.32l-.05.65v1.48l.02.15.04.67c.72 8.43 7.49 15.21 15.92 15.96l.79.04s.12.01.12.03h1.45s.06-.03.08-.03l.54-.02c6.81-.51 12.73-4.98 15.13-11.39.58-1.54.93-3.15 1.06-4.8l.02-.62.04-.04v-1.45l-.03-.15ZM42.26 37.7c-.51 0-.89-.39-.89-.92 0-2.53-1.38-4.86-3.61-6.1-2.33-1.29-5.22-1.26-7.5.06a6.98 6.98 0 0 0-3.5 6.04c0 .52-.36.91-.86.92s-.91-.39-.89-.93c.03-3.64 2.18-6.74 5.57-8.13a6.367 6.367 0 0 1-2.22-8.14 6.36 6.36 0 0 1 7.77-3.2c2.25.76 3.87 2.76 4.21 5.06.37 2.48-.71 4.89-2.8 6.28 3.35 1.37 5.52 4.48 5.56 8.1 0 .53-.33.95-.86.96Z"/><circle cx="34.07" cy="23.32" r="4.62" fill="#0b5d5e"/>
  </symbol>
  <symbol id="icon-whatsapp" viewBox="0 0 61.94 56.03">
    <path fill="#b2b0d8" d="M47.02 26.45c0 9.78-7.93 17.71-17.71 17.71S11.6 36.23 11.6 26.45 19.53 8.74 29.31 8.74s17.71 7.93 17.71 17.71M18.6 36.89l5.63-1.46c4.8 2.59 10.63 1.2 13.79-3.13s2.6-10.22-1.16-13.91-9.87-4.1-14.1-.79-5.36 9.11-2.68 13.77l-1.48 5.51Z"/><path fill="#fff" d="m18.6 36.89 1.48-5.51c-2.68-4.67-1.47-10.52 2.68-13.77s10.27-2.98 14.1.79 4.26 9.65 1.16 13.91-8.98 5.72-13.79 3.13L18.6 36.9Zm2.53-2.5 3.38-.83c3.99 2.5 9.13 1.57 11.94-2.09s2.38-8.78-.96-11.94-8.49-3.23-11.94-.28S19.4 27.31 22 31.11z"/><path fill="#b2b0d8" d="m21.13 34.39.87-3.28c-2.6-3.8-1.89-8.91 1.55-11.86s8.66-2.83 11.94.28 3.72 8.34.96 11.94-7.95 4.59-11.94 2.09zm10.93-7.11-1.3 1.54c-1.91-.69-3.27-1.89-4.16-3.59l1.01-1.36-1.11-2.52c-.28-.65-1.5-.19-1.87.28-.86 1.11-.92 2.48-.24 3.72 1.54 2.83 4.27 5.31 7.52 5.79.91.13 1.9-.29 2.47-1 .36-.44.43-1.1.35-1.63l-2.67-1.24Z"/><path fill="#fff" d="m32.06 27.28 2.67 1.24c.08.53 0 1.18-.35 1.63-.57.71-1.55 1.14-2.47 1-3.26-.47-5.98-2.96-7.52-5.79-.68-1.24-.62-2.62.24-3.72.37-.47 1.58-.93 1.87-.28l1.11 2.52-1.01 1.36c.89 1.7 2.25 2.9 4.16 3.59l1.3-1.54Z"/>
  </symbol>
  <symbol id="icon-email" viewBox="0 0 61.94 56.03">
    <path fill="#fff" d="m42.2 37.63-6.23-6.43 6.24-5.76z"/><path fill="#e95643" d="M49.55 31.2c0 9.78-7.93 17.71-17.71 17.71S14.13 40.98 14.13 31.2s7.93-17.71 17.71-17.71 17.71 7.93 17.71 17.71m-17.57 2.17 9.4-8.69H22.26l8.82 8.79c.26.25.62.23.9-.1m-4.63-2.06-5.89-5.85v12.19zm14.85 6.32V25.44l-6.23 5.75 6.23 6.43Zm-14.07-5.54-5.89 6.38H41.4l-6.24-6.53-2.61 2.39c-.6.57-1.47.57-2.11.06l-2.32-2.3Z"/><path fill="#fff" d="M31.98 33.37c-.28.33-.64.35-.9.1l-8.82-8.79h19.12z"/><path fill="#fff" d="m28.13 32.09 2.32 2.3c.64.51 1.51.51 2.11-.06l2.61-2.39 6.24 6.53H22.25l5.89-6.38ZM27.35 31.31l-5.88 6.33-.01-12.18z"/>
  </symbol>
</svg>