<?xml version="1.0" encoding="UTF-8"?>
<svg id="Capa_1" data-name="Capa 1" xmlns="http://www.w3.org/2000/svg" viewBox="0 0 355.4 297.19">
  <defs>
    <style>
      .cls-1 {
        fill: #b2b0d8;
      }

      .cls-2 {
        fill: #e95643;
        opacity: .61;
      }
    </style>
  </defs>
  <path class="cls-1" d="M256.81,232.72c2.95-1.27,5.57,2.37,3.4,4.74-31.65,34.6-122.85,54.81-152.06,15.21-11.27-15.27-5.35-34.74,9.32-45.56,21.38-15.78,42.81-9.23,57.63,8.42,28.33,33.75,64.14,24.72,81.71,17.19Z"/>
  <path class="cls-2" d="M179.77,206.64c-7.16-8.57-14.02-15.12-24.55-18.77-32.04-11.1-66.54-.45-80.55-29.84-9.08-19.06-6.31-41.32,9.09-56.06,8.95-8.57,19.65-13.61,31.74-16.29,21-4.66,27.94-12.9,39.02-30.83,12.12-19.61,22.36-29.2,45.61-33.66,27.44-5.27,55.76-.28,79.76,13.88,26.35,15.54,39.76,37.51,33.45,68.26-4.06,19.78-24.39,23.25-27.08,63.8l-.83,12.58c-1.33,20.01-15.32,34.57-33.11,42.9-25.08,11.74-54.24,5.93-72.54-15.98Z"/>
</svg>