<?xml version="1.0" encoding="UTF-8"?>
<svg id="Capa_1" data-name="Capa 1" xmlns="http://www.w3.org/2000/svg" viewBox="0 0 355.4 297.19">
  <defs>
    <style>
      .cls-1 {
        fill: #0b5d5e;
      }

      .cls-2 {
        fill: #f1efde;
      }
    </style>
  </defs>
  <path class="cls-2" d="M164.38,272.68c-22.94-7.6-41.98-21.35-56.01-40.27-26.97-36.38-29.6-92.9,8.91-118.01l21.52-14.03c14.32-9.33,25.91-22.27,32.04-38.65,8.7-23.27,28.14-38.75,53.86-38.99,31.93-.3,62.68,16.59,79.9,43.92,21.24,33.7,11.46,75.8-15.78,103.96l-17.56,18.15c-8.78,9.08-13.39,19.88-13.79,32.36-1.14,35.54-47.6,66.64-93.09,51.56Z"/>
  <g>
    <path class="cls-1" d="M116.99,106.46c-4.38-7.71-5.62-12.91-6.34-18.26-.16-1.16-1.8-1.22-2.04-.07-1.57,7.35-4.4,15.1-8.24,20.51-.57.8-2.29,4.61-2.59,5.95-2.06,9.22,2.48,12.86,5.5,14.29,4.04,1.92,7.19,2.11,11.22.4,4.37-1.86,6.83-7.45,5.57-14.65-.22-1.26-1.41-5.25-3.07-8.16Z"/>
    <path class="cls-1" d="M102.43,61.44c4.38,7.71,5.62,12.91,6.34,18.26.16,1.16,1.8,1.22,2.04.07,1.57-7.35,4.4-15.1,8.24-20.51.57-.8,2.29-4.61,2.59-5.95,2.06-9.22-2.48-12.86-5.5-14.29-4.04-1.92-7.19-2.11-11.22-.4-4.37,1.86-6.83,7.45-5.57,14.65.22,1.26,1.41,5.25,3.07,8.16Z"/>
    <path class="cls-1" d="M86.99,91.64c7.71-4.38,12.91-5.62,18.26-6.34,1.16-.16,1.22-1.8.07-2.04-7.35-1.57-15.1-4.4-20.51-8.24-.8-.57-4.61-2.29-5.95-2.59-9.22-2.06-12.86,2.48-14.29,5.5-1.92,4.04-2.11,7.19-.4,11.22,1.86,4.37,7.45,6.83,14.65,5.57,1.26-.22,5.25-1.41,8.16-3.07Z"/>
    <path class="cls-1" d="M132.02,77.08c-7.71,4.38-12.91,5.62-18.26,6.34-1.16.16-1.22,1.8-.07,2.04,7.35,1.57,15.1,4.4,20.51,8.24.8.57,4.61,2.29,5.95,2.59,9.22,2.06,12.86-2.48,14.29-5.5,1.92-4.04,2.11-7.19.4-11.22-1.86-4.37-7.45-6.83-14.65-5.57-1.26.22-5.25,1.41-8.16,3.07Z"/>
    <path class="cls-1" d="M88.57,73.16c8.55,2.35,13.1,5.15,17.39,8.42.93.71,2.14-.4,1.51-1.39-4.09-6.31-7.57-13.79-8.67-20.33-.16-.97-1.64-4.88-2.37-6.04-5.07-7.98-10.85-7.34-13.99-6.22-4.22,1.5-6.58,3.59-8.22,7.65-1.78,4.41.44,10.1,6.42,14.3,1.05.74,4.71,2.71,7.94,3.6Z"/>
    <path class="cls-1" d="M130.71,94.7c-8.55-2.35-13.1-5.15-17.39-8.42-.93-.71-2.14.4-1.51,1.39,4.09,6.31,7.57,13.79,8.67,20.33.16.97,1.64,4.88,2.37,6.04,5.07,7.98,10.85,7.34,13.99,6.22,4.22-1.5,6.58-3.59,8.22-7.65,1.78-4.41-.44-10.1-6.42-14.3-1.05-.74-4.71-2.71-7.94-3.6Z"/>
    <path class="cls-1" d="M98.87,105c2.35-8.55,5.15-13.1,8.42-17.39.71-.93-.4-2.14-1.39-1.51-6.31,4.09-13.79,7.57-20.33,8.67-.97.16-4.88,1.64-6.04,2.37-7.98,5.07-7.34,10.85-6.22,13.99,1.5,4.22,3.59,6.58,7.65,8.22,4.41,1.78,10.1-.44,14.3-6.42.74-1.05,2.71-4.71,3.6-7.94Z"/>
    <path class="cls-1" d="M120.41,62.86c-2.35,8.55-5.15,13.1-8.42,17.39-.71.93.4,2.14,1.39,1.51,6.31-4.09,13.79-7.57,20.33-8.67.97-.16,4.88-1.64,6.04-2.37,7.98-5.07,7.34-10.85,6.22-13.99-1.5-4.22-3.59-6.58-7.65-8.22-4.41-1.78-10.1.44-14.3,6.42-.74,1.05-2.71,4.71-3.6,7.94Z"/>
  </g>
</svg>