<?xml version="1.0" encoding="UTF-8"?>
<svg id="Capa_1" data-name="Capa 1" xmlns="http://www.w3.org/2000/svg" viewBox="0 0 36.85 36.85">
  <defs>
    <style>
      .cls-1 {
        fill: #e95643;
      }
    </style>
  </defs>
  <path class="cls-1" d="M17.66,30.76h0c-.15,0-.19-.22-.04-.27,3.03-1.08,6.61-3.36,7.42-6.72.05-.19.03-.39-.03-.58-.15-.4-.24-.84-.24-1.33,0-.28.03-.54.08-.79.06-.29.02-.6-.12-.86-.8-1.57-2.52-2.36-4.44-2.36-1.14,0-2.28.31-3.15.95h0c-.92.68-1.55,1.73-1.55,3.16,0,.06,0,.13,0,.19h0c.04,1.09.38,2.35,1.67,2.35.68,0,1.38-.46,1.38-1.32,0-.75-.33-1.41-.33-2.18,0-1.72.99-2.54,1.97-2.54,1.44,0,1.99,1.46,1.99,2.74,0,4.47-3.22,7.08-6.59,9.26-.14.09-.23.25-.23.43v1.32c0,.28.22.51.5.51h8.72c.26,0,.48-.21.49-.48l.03-.76c0-.12-.03-.24-.11-.33-.27-.34-.46-.71-.58-1.09-.09-.3-.43-.43-.7-.28-1.25.69-3.37.98-6.12.98Z"/>
  <path class="cls-1" d="M32.99,25.12c-.19-.14-.19-.43,0-.57,1.09-.81,1.67-1.97,1.67-3.12,0-2.48-2.32-3.69-4.44-3.69-1.99,0-4.21.95-4.83,2.92,0,0,0,0,0,.01-.11.35-.17.73-.17,1.15,0,.58.12,1.1.34,1.56,0,0,0,0,0,0,.32.69.83,1.26,1.44,1.76.15.12.12.36-.04.45-1.41.78-2.16,2.12-2.16,3.44,0,.1,0,.19.01.29.06.69.33,1.35.83,1.91.78.88,2.12,1.49,4.08,1.49,2.66,0,5.42-1.38,5.42-4.08,0-1.59-.94-2.65-2.14-3.53ZM29.92,32.11c-1.85,0-2.65-1.54-2.65-3.15,0-.01,0-.02,0-.03.01-1.57,1.72-2.49,3.01-1.65,1.09.72,1.92,1.47,1.92,2.52,0,1.52-1.11,2.31-2.29,2.31ZM32.17,22.64c-.22.84-1.18,1.22-1.9.75-1.2-.77-2.15-1.58-2.15-2.74s.68-2.32,1.96-2.32c1.59,0,2.24,1.77,2.24,3.14,0,.39-.05.79-.15,1.17Z"/>
  <path class="cls-1" d="M11.91,32.65c-.88.04-1.63-.54-1.68-1.45-.03-.69.41-1.21,1.11-1.24,1.66-.08,2.76-.87,2.67-2.62-.06-1.18-.9-2.03-2.1-1.97-3.39.17-2.48,7.15-6.54,7.35-2.78.14-3.53-2.51-3.64-4.78-.06-1.29.2-3.11,1.33-3.92.31-.22.68-.41,1.07-.43.69-.03,1.13.49,1.16,1.14.11,2.27-3.3.92-3.16,3.68.06,1.13.77,1.93,1.96,1.87,3.47-.17,1.97-7.25,6.61-7.48,2.77-.14,3.6,2.4,3.71,4.69.09,1.72-.23,5.07-2.5,5.18Z"/>
  <path class="cls-1" d="M21.68,4.28l.74,2.62c.03.12.15.18.27.15l.89-.25c.12-.03.24.03.27.15h0c.03.12-.03.24-.15.27l-.89.25c-.12.03-.18.15-.15.27l1.42,5.08c.11.38.42.84.88.71.22-.06.39-.25.48-.46.03-.06.09-.09.15-.08h0c.06.01.11.07.11.14-.07,1.08-.82,1.8-1.85,2.09-.9.25-1.75,0-2.02-.98l-1.64-5.79c-.03-.12-.15-.18-.27-.15l-.55.15c-.12.03-.24-.03-.27-.15v-.05c-.04-.09,0-.19.08-.24,1.03-.68,2.16-2.33,1.95-3.59-.02-.11.05-.21.15-.24l.13-.04c.12-.03.24.03.27.15Z"/>
  <path class="cls-1" d="M23.81,16.66c-.15-1.02-3.72-1.53-6.75-.81-1.57.37-1.85-.9-2.41-2.16-.05-.12,0-.25.12-.29.84-.31,3.85-1.44,4.64-1.74.11-.04.17-.16.13-.27-.32-.97-.91-1.68-1.66-2.11-.27-.16-.77-.35-1.19-.37-.48-.02-1,0-1.55.16-2.8.79-4.09,3.28-2.62,6.28.85,1.73,2.86,2.51,4.67,1.86,2.2-.8,3.89-.74,6.13-.05,0,0,.58.16.48-.5ZM14.35,12.81c-.27-1.11-.45-2.98.87-3.35.95-.27,1.56,1.05,1.77,1.77.05.17.09.35.12.53.01.1-.04.19-.13.23-.45.19-1.79.75-2.33.97-.12.05-.26-.02-.29-.15Z"/>
  <path class="cls-1" d="M32.6,8.58c2.07,1.1,2.41,3.07,1.53,4.81-.03.05-.09.07-.14.05l-4.76-2.03c-.06-.02-.12,0-.14.06-.55,1.41-.38,2.8,1.03,3.55,1.17.62,2.43.55,3.58-.04.05-.02.1-.01.14.03h0s.03.11-.02.15c-1.6,1.33-3.48,1.71-5.27.77-2.32-1.23-2.98-3.36-1.75-5.68,1.21-2.28,3.51-2.86,5.79-1.66ZM29.43,11l2.55.98s.1,0,.13-.04c.79-1.12,1.12-2.58.27-3.03-1.17-.62-2.38.76-3.01,1.94-.03.06,0,.13.06.15Z"/>
  <path class="cls-1" d="M15.67,18.19s-.08,0-.11.02c-.41.37-.9.53-1.59.21l-3.85-1.8c-.09-.04-.17.07-.1.14.53.56.98.95.75,1.59-.11.31-.53.5-.95.47-.25-.02-.44.05-.57.14-.04.03-.03.1.01.12.7.3,3.62,1.65,3.62,1.65.7.33.88.8.87,1.35,0,.04.02.08.06.09h0s.11,0,.13-.05c0,0,.15-1.53.43-2.08.65-1.3,1.36-1.74,1.36-1.74.02-.05,0-.11-.05-.13Z"/>
  <path class="cls-1" d="M10.44,17.93c.03-.18-1.03-1.09-1.27-1.78-.27-.78-.89-1.31-1.73-.99-.57.22-.68,1.1-.39,1.52.21.3.83.57.72.56-1.26-.16-1.59,1.04-1.29,1.61.41.8,1.34.66,1.96.16.55-.45,1.09-.56,1.55-.51.32.03.52-.3.45-.57Z"/>
</svg>